<svg class="setupfig" viewBox="0 0 720 440" width="100%" role="img" aria-label="Wind speed and radial Alfven speed against heliocentric distance on logarithmic axes. The wind speed is nearly flat; the Alfven speed falls as one over radius and crosses it. A narrow shaded band marks the eight model crossing radii between about sixteen and nineteen solar radii. Two measured values are marked: Verscharen and colleagues at twelve solar radii, to the left of the band, and the Parker Solar Probe lower bound at nineteen point eight solar radii, at its right-hand edge." >
<rect x="92" y="46" width="508" height="266" fill="none" stroke="#334155" stroke-width="1"/>
<line x1="92.0" y1="312" x2="92.0" y2="317" stroke="#334155" stroke-width="1"/>
<text x="92.0" y="330" font-size="10.5" text-anchor="middle" fill="#94a3b8">5</text>
<line x1="183.0" y1="312" x2="183.0" y2="317" stroke="#334155" stroke-width="1"/>
<text x="183.0" y="330" font-size="10.5" text-anchor="middle" fill="#94a3b8">10</text>
<line x1="273.9" y1="312" x2="273.9" y2="317" stroke="#334155" stroke-width="1"/>
<text x="273.9" y="330" font-size="10.5" text-anchor="middle" fill="#94a3b8">20</text>
<line x1="394.2" y1="312" x2="394.2" y2="317" stroke="#334155" stroke-width="1"/>
<text x="394.2" y="330" font-size="10.5" text-anchor="middle" fill="#94a3b8">50</text>
<line x1="485.1" y1="312" x2="485.1" y2="317" stroke="#334155" stroke-width="1"/>
<text x="485.1" y="330" font-size="10.5" text-anchor="middle" fill="#94a3b8">100</text>
<line x1="576.1" y1="312" x2="576.1" y2="317" stroke="#334155" stroke-width="1"/>
<text x="576.1" y="330" font-size="10.5" text-anchor="middle" fill="#94a3b8">200</text>
<line x1="87" y1="312.0" x2="92" y2="312.0" stroke="#334155" stroke-width="1"/>
<text x="84" y="316.0" font-size="10.5" text-anchor="end" fill="#94a3b8">20</text>
<line x1="87" y1="248.0" x2="92" y2="248.0" stroke="#334155" stroke-width="1"/>
<text x="84" y="252.0" font-size="10.5" text-anchor="end" fill="#94a3b8">50</text>
<line x1="87" y1="199.5" x2="92" y2="199.5" stroke="#334155" stroke-width="1"/>
<text x="84" y="203.5" font-size="10.5" text-anchor="end" fill="#94a3b8">100</text>
<line x1="87" y1="151.1" x2="92" y2="151.1" stroke="#334155" stroke-width="1"/>
<text x="84" y="155.1" font-size="10.5" text-anchor="end" fill="#94a3b8">200</text>
<line x1="87" y1="87.1" x2="92" y2="87.1" stroke="#334155" stroke-width="1"/>
<text x="84" y="91.1" font-size="10.5" text-anchor="end" fill="#94a3b8">500</text>
<rect x="242.6" y="46" width="26.9" height="266" fill="#fb923c" opacity="0.18"/>
<path d="M 92.0,96.7 L 93.3,96.7 L 94.5,96.7 L 95.8,96.7 L 97.1,96.7 L 98.4,96.7 L 99.6,96.7 L 100.9,96.7 L 102.2,96.7 L 103.5,96.7 L 104.7,96.7 L 106.0,96.7 L 107.3,96.7 L 108.6,96.7 L 109.8,96.7 L 111.1,96.7 L 112.4,96.7 L 113.6,96.7 L 114.9,96.7 L 116.2,96.7 L 117.5,96.7 L 118.7,96.7 L 120.0,96.7 L 121.3,96.7 L 122.6,96.7 L 123.8,96.7 L 125.1,96.7 L 126.4,96.7 L 127.6,96.7 L 128.9,96.7 L 130.2,96.7 L 131.5,96.7 L 132.7,96.7 L 134.0,96.7 L 135.3,96.7 L 136.6,96.7 L 137.8,96.7 L 139.1,96.7 L 140.4,96.7 L 141.7,96.7 L 142.9,96.7 L 144.2,96.7 L 145.5,96.7 L 146.7,96.7 L 148.0,96.7 L 149.3,96.7 L 150.6,96.7 L 151.8,96.7 L 153.1,96.7 L 154.4,96.7 L 155.7,96.7 L 156.9,96.7 L 158.2,96.7 L 159.5,96.7 L 160.8,96.7 L 162.0,96.7 L 163.3,96.7 L 164.6,96.7 L 165.8,96.7 L 167.1,96.7 L 168.4,96.7 L 169.7,96.7 L 170.9,96.7 L 172.2,96.7 L 173.5,96.7 L 174.8,96.7 L 176.0,96.7 L 177.3,96.7 L 178.6,96.7 L 179.8,96.7 L 181.1,96.7 L 182.4,96.7 L 183.7,96.7 L 184.9,96.7 L 186.2,96.7 L 187.5,96.7 L 188.8,96.7 L 190.0,96.7 L 191.3,96.7 L 192.6,96.7 L 193.9,96.7 L 195.1,96.7 L 196.4,96.7 L 197.7,96.7 L 198.9,96.7 L 200.2,96.7 L 201.5,96.7 L 202.8,96.7 L 204.0,96.7 L 205.3,96.7 L 206.6,96.7 L 207.9,96.7 L 209.1,96.7 L 210.4,96.7 L 211.7,96.7 L 213.0,96.7 L 214.2,96.7 L 215.5,96.7 L 216.8,96.7 L 218.0,96.7 L 219.3,96.7 L 220.6,96.7 L 221.9,96.7 L 223.1,96.7 L 224.4,96.7 L 225.7,96.7 L 227.0,96.7 L 228.2,96.7 L 229.5,96.7 L 230.8,96.7 L 232.1,96.7 L 233.3,96.7 L 234.6,96.7 L 235.9,96.7 L 237.1,96.7 L 238.4,96.7 L 239.7,96.7 L 241.0,96.7 L 242.2,96.7 L 243.5,96.7 L 244.8,96.7 L 246.1,96.7 L 247.3,96.7 L 248.6,96.7 L 249.9,96.7 L 251.1,96.7 L 252.4,96.7 L 253.7,96.7 L 255.0,96.7 L 256.2,96.7 L 257.5,96.7 L 258.8,96.7 L 260.1,96.7 L 261.3,96.7 L 262.6,96.7 L 263.9,96.7 L 265.2,96.7 L 266.4,96.7 L 267.7,96.7 L 269.0,96.7 L 270.2,96.7 L 271.5,96.7 L 272.8,96.7 L 274.1,96.7 L 275.3,96.7 L 276.6,96.7 L 277.9,96.7 L 279.2,96.7 L 280.4,96.7 L 281.7,96.7 L 283.0,96.7 L 284.3,96.7 L 285.5,96.7 L 286.8,96.7 L 288.1,96.7 L 289.3,96.7 L 290.6,96.7 L 291.9,96.7 L 293.2,96.7 L 294.4,96.7 L 295.7,96.7 L 297.0,96.7 L 298.3,96.7 L 299.5,96.7 L 300.8,96.7 L 302.1,96.7 L 303.3,96.7 L 304.6,96.7 L 305.9,96.7 L 307.2,96.7 L 308.4,96.7 L 309.7,96.7 L 311.0,96.7 L 312.3,96.7 L 313.5,96.7 L 314.8,96.7 L 316.1,96.7 L 317.4,96.7 L 318.6,96.7 L 319.9,96.7 L 321.2,96.7 L 322.4,96.7 L 323.7,96.7 L 325.0,96.7 L 326.3,96.7 L 327.5,96.7 L 328.8,96.7 L 330.1,96.7 L 331.4,96.7 L 332.6,96.7 L 333.9,96.7 L 335.2,96.7 L 336.5,96.7 L 337.7,96.7 L 339.0,96.7 L 340.3,96.7 L 341.5,96.7 L 342.8,96.7 L 344.1,96.7 L 345.4,96.7 L 346.6,96.7 L 347.9,96.7 L 349.2,96.7 L 350.5,96.7 L 351.7,96.7 L 353.0,96.7 L 354.3,96.7 L 355.5,96.7 L 356.8,96.7 L 358.1,96.7 L 359.4,96.7 L 360.6,96.7 L 361.9,96.7 L 363.2,96.7 L 364.5,96.7 L 365.7,96.7 L 367.0,96.7 L 368.3,96.7 L 369.6,96.7 L 370.8,96.7 L 372.1,96.7 L 373.4,96.7 L 374.6,96.7 L 375.9,96.7 L 377.2,96.7 L 378.5,96.7 L 379.7,96.7 L 381.0,96.7 L 382.3,96.7 L 383.6,96.7 L 384.8,96.7 L 386.1,96.7 L 387.4,96.7 L 388.7,96.7 L 389.9,96.7 L 391.2,96.7 L 392.5,96.7 L 393.7,96.7 L 395.0,96.7 L 396.3,96.7 L 397.6,96.7 L 398.8,96.7 L 400.1,96.7 L 401.4,96.7 L 402.7,96.7 L 403.9,96.7 L 405.2,96.7 L 406.5,96.7 L 407.7,96.7 L 409.0,96.7 L 410.3,96.7 L 411.6,96.7 L 412.8,96.7 L 414.1,96.7 L 415.4,96.7 L 416.7,96.7 L 417.9,96.7 L 419.2,96.7 L 420.5,96.7 L 421.8,96.7 L 423.0,96.7 L 424.3,96.7 L 425.6,96.7 L 426.8,96.7 L 428.1,96.7 L 429.4,96.7 L 430.7,96.7 L 431.9,96.7 L 433.2,96.7 L 434.5,96.7 L 435.8,96.7 L 437.0,96.7 L 438.3,96.7 L 439.6,96.7 L 440.9,96.7 L 442.1,96.7 L 443.4,96.7 L 444.7,96.7 L 445.9,96.7 L 447.2,96.7 L 448.5,96.7 L 449.8,96.7 L 451.0,96.7 L 452.3,96.7 L 453.6,96.7 L 454.9,96.7 L 456.1,96.7 L 457.4,96.7 L 458.7,96.7 L 459.9,96.7 L 461.2,96.7 L 462.5,96.7 L 463.8,96.7 L 465.0,96.7 L 466.3,96.7 L 467.6,96.7 L 468.9,96.7 L 470.1,96.7 L 471.4,96.7 L 472.7,96.7 L 474.0,96.7 L 475.2,96.7 L 476.5,96.7 L 477.8,96.7 L 479.0,96.7 L 480.3,96.7 L 481.6,96.7 L 482.9,96.7 L 484.1,96.7 L 485.4,96.7 L 486.7,96.7 L 488.0,96.7 L 489.2,96.7 L 490.5,96.7 L 491.8,96.7 L 493.1,96.7 L 494.3,96.7 L 495.6,96.7 L 496.9,96.7 L 498.1,96.7 L 499.4,96.7 L 500.7,96.7 L 502.0,96.7 L 503.2,96.7 L 504.5,96.7 L 505.8,96.7 L 507.1,96.7 L 508.3,96.7 L 509.6,96.7 L 510.9,96.7 L 512.2,96.7 L 513.4,96.7 L 514.7,96.7 L 516.0,96.7 L 517.2,96.7 L 518.5,96.7 L 519.8,96.7 L 521.1,96.7 L 522.3,96.7 L 523.6,96.7 L 524.9,96.7 L 526.2,96.7 L 527.4,96.7 L 528.7,96.7 L 530.0,96.7 L 531.2,96.7 L 532.5,96.7 L 533.8,96.7 L 535.1,96.7 L 536.3,96.7 L 537.6,96.7 L 538.9,96.7 L 540.2,96.7 L 541.4,96.7 L 542.7,96.7 L 544.0,96.7 L 545.3,96.7 L 546.5,96.7 L 547.8,96.7 L 549.1,96.7 L 550.3,96.7 L 551.6,96.7 L 552.9,96.7 L 554.2,96.7 L 555.4,96.7 L 556.7,96.7 L 558.0,96.7 L 559.3,96.7 L 560.5,96.7 L 561.8,96.7 L 563.1,96.7 L 564.4,96.7 L 565.6,96.7 L 566.9,96.7 L 568.2,96.7 L 569.4,96.7 L 570.7,96.7 L 572.0,96.7 L 573.3,96.7 L 574.5,96.7 L 575.8,96.7 L 577.1,96.7 L 578.4,96.7 L 579.6,96.7 L 580.9,96.7 L 582.2,96.7 L 583.4,96.7 L 584.7,96.7 L 586.0,96.7 L 587.3,96.7 L 588.5,96.7 L 589.8,96.7 L 591.1,96.7 L 592.4,96.7 L 593.6,96.7 L 594.9,96.7 L 596.2,96.7 L 597.5,96.7 L 598.7,96.7 L 600.0,96.7" fill="none" stroke="#2dd4bf" stroke-width="2"/>
<path d="M 158.2,46.6 L 159.5,47.2 L 160.8,47.9 L 162.0,48.6 L 163.3,49.3 L 164.6,49.9 L 165.8,50.6 L 167.1,51.3 L 168.4,52.0 L 169.7,52.7 L 170.9,53.3 L 172.2,54.0 L 173.5,54.7 L 174.8,55.4 L 176.0,56.1 L 177.3,56.7 L 178.6,57.4 L 179.8,58.1 L 181.1,58.8 L 182.4,59.4 L 183.7,60.1 L 184.9,60.8 L 186.2,61.5 L 187.5,62.2 L 188.8,62.8 L 190.0,63.5 L 191.3,64.2 L 192.6,64.9 L 193.9,65.5 L 195.1,66.2 L 196.4,66.9 L 197.7,67.6 L 198.9,68.3 L 200.2,68.9 L 201.5,69.6 L 202.8,70.3 L 204.0,71.0 L 205.3,71.6 L 206.6,72.3 L 207.9,73.0 L 209.1,73.7 L 210.4,74.4 L 211.7,75.0 L 213.0,75.7 L 214.2,76.4 L 215.5,77.1 L 216.8,77.7 L 218.0,78.4 L 219.3,79.1 L 220.6,79.8 L 221.9,80.5 L 223.1,81.1 L 224.4,81.8 L 225.7,82.5 L 227.0,83.2 L 228.2,83.8 L 229.5,84.5 L 230.8,85.2 L 232.1,85.9 L 233.3,86.6 L 234.6,87.2 L 235.9,87.9 L 237.1,88.6 L 238.4,89.3 L 239.7,89.9 L 241.0,90.6 L 242.2,91.3 L 243.5,92.0 L 244.8,92.7 L 246.1,93.3 L 247.3,94.0 L 248.6,94.7 L 249.9,95.4 L 251.1,96.1 L 252.4,96.7 L 253.7,97.4 L 255.0,98.1 L 256.2,98.8 L 257.5,99.4 L 258.8,100.1 L 260.1,100.8 L 261.3,101.5 L 262.6,102.2 L 263.9,102.8 L 265.2,103.5 L 266.4,104.2 L 267.7,104.9 L 269.0,105.5 L 270.2,106.2 L 271.5,106.9 L 272.8,107.6 L 274.1,108.3 L 275.3,108.9 L 276.6,109.6 L 277.9,110.3 L 279.2,111.0 L 280.4,111.6 L 281.7,112.3 L 283.0,113.0 L 284.3,113.7 L 285.5,114.4 L 286.8,115.0 L 288.1,115.7 L 289.3,116.4 L 290.6,117.1 L 291.9,117.7 L 293.2,118.4 L 294.4,119.1 L 295.7,119.8 L 297.0,120.5 L 298.3,121.1 L 299.5,121.8 L 300.8,122.5 L 302.1,123.2 L 303.3,123.8 L 304.6,124.5 L 305.9,125.2 L 307.2,125.9 L 308.4,126.6 L 309.7,127.2 L 311.0,127.9 L 312.3,128.6 L 313.5,129.3 L 314.8,130.0 L 316.1,130.6 L 317.4,131.3 L 318.6,132.0 L 319.9,132.7 L 321.2,133.3 L 322.4,134.0 L 323.7,134.7 L 325.0,135.4 L 326.3,136.1 L 327.5,136.7 L 328.8,137.4 L 330.1,138.1 L 331.4,138.8 L 332.6,139.4 L 333.9,140.1 L 335.2,140.8 L 336.5,141.5 L 337.7,142.2 L 339.0,142.8 L 340.3,143.5 L 341.5,144.2 L 342.8,144.9 L 344.1,145.5 L 345.4,146.2 L 346.6,146.9 L 347.9,147.6 L 349.2,148.3 L 350.5,148.9 L 351.7,149.6 L 353.0,150.3 L 354.3,151.0 L 355.5,151.6 L 356.8,152.3 L 358.1,153.0 L 359.4,153.7 L 360.6,154.4 L 361.9,155.0 L 363.2,155.7 L 364.5,156.4 L 365.7,157.1 L 367.0,157.7 L 368.3,158.4 L 369.6,159.1 L 370.8,159.8 L 372.1,160.5 L 373.4,161.1 L 374.6,161.8 L 375.9,162.5 L 377.2,163.2 L 378.5,163.8 L 379.7,164.5 L 381.0,165.2 L 382.3,165.9 L 383.6,166.6 L 384.8,167.2 L 386.1,167.9 L 387.4,168.6 L 388.7,169.3 L 389.9,170.0 L 391.2,170.6 L 392.5,171.3 L 393.7,172.0 L 395.0,172.7 L 396.3,173.3 L 397.6,174.0 L 398.8,174.7 L 400.1,175.4 L 401.4,176.1 L 402.7,176.7 L 403.9,177.4 L 405.2,178.1 L 406.5,178.8 L 407.7,179.4 L 409.0,180.1 L 410.3,180.8 L 411.6,181.5 L 412.8,182.2 L 414.1,182.8 L 415.4,183.5 L 416.7,184.2 L 417.9,184.9 L 419.2,185.5 L 420.5,186.2 L 421.8,186.9 L 423.0,187.6 L 424.3,188.3 L 425.6,188.9 L 426.8,189.6 L 428.1,190.3 L 429.4,191.0 L 430.7,191.6 L 431.9,192.3 L 433.2,193.0 L 434.5,193.7 L 435.8,194.4 L 437.0,195.0 L 438.3,195.7 L 439.6,196.4 L 440.9,197.1 L 442.1,197.7 L 443.4,198.4 L 444.7,199.1 L 445.9,199.8 L 447.2,200.5 L 448.5,201.1 L 449.8,201.8 L 451.0,202.5 L 452.3,203.2 L 453.6,203.8 L 454.9,204.5 L 456.1,205.2 L 457.4,205.9 L 458.7,206.6 L 459.9,207.2 L 461.2,207.9 L 462.5,208.6 L 463.8,209.3 L 465.0,210.0 L 466.3,210.6 L 467.6,211.3 L 468.9,212.0 L 470.1,212.7 L 471.4,213.3 L 472.7,214.0 L 474.0,214.7 L 475.2,215.4 L 476.5,216.1 L 477.8,216.7 L 479.0,217.4 L 480.3,218.1 L 481.6,218.8 L 482.9,219.4 L 484.1,220.1 L 485.4,220.8 L 486.7,221.5 L 488.0,222.2 L 489.2,222.8 L 490.5,223.5 L 491.8,224.2 L 493.1,224.9 L 494.3,225.5 L 495.6,226.2 L 496.9,226.9 L 498.1,227.6 L 499.4,228.3 L 500.7,228.9 L 502.0,229.6 L 503.2,230.3 L 504.5,231.0 L 505.8,231.6 L 507.1,232.3 L 508.3,233.0 L 509.6,233.7 L 510.9,234.4 L 512.2,235.0 L 513.4,235.7 L 514.7,236.4 L 516.0,237.1 L 517.2,237.7 L 518.5,238.4 L 519.8,239.1 L 521.1,239.8 L 522.3,240.5 L 523.6,241.1 L 524.9,241.8 L 526.2,242.5 L 527.4,243.2 L 528.7,243.8 L 530.0,244.5 L 531.2,245.2 L 532.5,245.9 L 533.8,246.6 L 535.1,247.2 L 536.3,247.9 L 537.6,248.6 L 538.9,249.3 L 540.2,250.0 L 541.4,250.6 L 542.7,251.3 L 544.0,252.0 L 545.3,252.7 L 546.5,253.3 L 547.8,254.0 L 549.1,254.7 L 550.3,255.4 L 551.6,256.1 L 552.9,256.7 L 554.2,257.4 L 555.4,258.1 L 556.7,258.8 L 558.0,259.4 L 559.3,260.1 L 560.5,260.8 L 561.8,261.5 L 563.1,262.2 L 564.4,262.8 L 565.6,263.5 L 566.9,264.2 L 568.2,264.9 L 569.4,265.5 L 570.7,266.2 L 572.0,266.9 L 573.3,267.6 L 574.5,268.3 L 575.8,268.9 L 577.1,269.6 L 578.4,270.3 L 579.6,271.0 L 580.9,271.6 L 582.2,272.3 L 583.4,273.0 L 584.7,273.7 L 586.0,274.4 L 587.3,275.0 L 588.5,275.7 L 589.8,276.4 L 591.1,277.1 L 592.4,277.7 L 593.6,278.4 L 594.9,279.1 L 596.2,279.8 L 597.5,280.5 L 598.7,281.1 L 600.0,281.8" fill="none" stroke="#fb923c" stroke-width="2"/>
<circle cx="252.4" cy="96.7" r="5" fill="none" stroke="#cbd5e1" stroke-width="1.6"/>
<line x1="207.8" y1="46" x2="207.8" y2="312" stroke="#a78bfa" stroke-width="1.4" stroke-dasharray="5 4"/>
<rect x="205.2" y="46" width="5.1" height="266" fill="#a78bfa" opacity="0.22"/>
<text x="92" y="374" font-size="10.5" fill="#a78bfa">Verscharen FLS1 12.08 R<tspan baseline-shift="sub" font-size="8">&#9737;</tspan></text>
<line x1="272.6" y1="46" x2="272.6" y2="312" stroke="#facc15" stroke-width="1.4" stroke-dasharray="5 4"/>
<text x="92" y="392" font-size="10.5" fill="#facc15">PSP I1, a LOWER bound &#8805; 19.8 R<tspan baseline-shift="sub" font-size="8">&#9737;</tspan></text>
<rect x="92" y="404" width="12" height="10" fill="#fb923c" opacity="0.30"/>
<text x="110" y="413" font-size="10.5" fill="#fb923c">eight model variants, 15.76&#8211;19.35 R<tspan baseline-shift="sub" font-size="8">&#9737;</tspan></text>
<text x="509" y="88" font-size="10.5" fill="#2dd4bf">wind speed 435.6 km s<tspan baseline-shift="super" font-size="8">-1</tspan></text>
<text x="308" y="290" font-size="10.5" fill="#fb923c">radial Alfv&#233;n speed, &#8733; 1/r</text>
<text x="346" y="352" font-size="11.5" text-anchor="middle" fill="#cbd5e1">heliocentric distance / R<tspan baseline-shift="sub" font-size="8">&#9737;</tspan></text>
<text x="40" y="179" font-size="11.5" text-anchor="middle" fill="#cbd5e1" transform="rotate(-90 40 179)">speed / km s<tspan baseline-shift="super" font-size="8">-1</tspan></text>
<text x="342" y="374" font-size="10.5" fill="#94a3b8">the two differ by 1.64, and are not the same quantity</text>
<text x="342" y="392" font-size="10.5" fill="#94a3b8">every variant exceeds the first by 1.305&#8211;1.602</text>
<text x="342" y="410" font-size="10.5" fill="#94a3b8">and falls short of the second by 1.023&#8211;1.256</text>
</svg>