<svg class="setupfig" viewBox="0 0 640 380" width="100%" role="img" aria-label="Largest amplification factor over all Fourier modes against the Courant number from 0 to 1.5. The upwind curve equals 1 from 0 to 1 and rises as 2C minus 1 beyond 1. The forward-time centred-space curve is the square root of 1 plus C squared and lies above 1 for every C greater than 0. Two dots on the upwind curve at C 0.9 and 1.1 mark the measured growth per step of the sawtooth mode, 0.8 in magnitude below and 1.2 above.">
<rect x="70" y="24" width="530" height="296" fill="none" stroke="#334155" stroke-width="1"/>
<rect x="70.0" y="24.0" width="353.3" height="296.0" fill="#2dd4bf" opacity="0.07"/>
<line x1="70.0" y1="185.5" x2="600.0" y2="185.5" stroke="#94a3b8" stroke-width="1" stroke-dasharray="4 4"/>
<line x1="423.3" y1="24.0" x2="423.3" y2="320.0" stroke="#a78bfa" stroke-width="1" stroke-dasharray="3 3"/>
<line x1="70.0" y1="320.0" x2="70.0" y2="325.0" stroke="#334155" stroke-width="1"/>
<text x="70.0" y="338.0" font-size="10.5" text-anchor="middle" fill="#94a3b8">0</text>
<line x1="246.7" y1="320.0" x2="246.7" y2="325.0" stroke="#334155" stroke-width="1"/>
<text x="246.7" y="338.0" font-size="10.5" text-anchor="middle" fill="#94a3b8">0.5</text>
<line x1="423.3" y1="320.0" x2="423.3" y2="325.0" stroke="#334155" stroke-width="1"/>
<text x="423.3" y="338.0" font-size="10.5" text-anchor="middle" fill="#94a3b8">1</text>
<line x1="600.0" y1="320.0" x2="600.0" y2="325.0" stroke="#334155" stroke-width="1"/>
<text x="600.0" y="338.0" font-size="10.5" text-anchor="middle" fill="#94a3b8">1.5</text>
<line x1="65.0" y1="320.0" x2="70.0" y2="320.0" stroke="#334155" stroke-width="1"/>
<text x="62.0" y="324.0" font-size="10.5" text-anchor="end" fill="#94a3b8">0</text>
<line x1="65.0" y1="252.7" x2="70.0" y2="252.7" stroke="#334155" stroke-width="1"/>
<text x="62.0" y="256.7" font-size="10.5" text-anchor="end" fill="#94a3b8">0.5</text>
<line x1="65.0" y1="185.5" x2="70.0" y2="185.5" stroke="#334155" stroke-width="1"/>
<text x="62.0" y="189.5" font-size="10.5" text-anchor="end" fill="#94a3b8">1</text>
<line x1="65.0" y1="118.2" x2="70.0" y2="118.2" stroke="#334155" stroke-width="1"/>
<text x="62.0" y="122.2" font-size="10.5" text-anchor="end" fill="#94a3b8">1.5</text>
<line x1="65.0" y1="50.9" x2="70.0" y2="50.9" stroke="#334155" stroke-width="1"/>
<text x="62.0" y="54.9" font-size="10.5" text-anchor="end" fill="#94a3b8">2</text>
<path d="M 70.0,185.5 L 71.8,185.5 L 73.5,185.5 L 75.3,185.5 L 77.1,185.5 L 78.8,185.5 L 80.6,185.5 L 82.4,185.5 L 84.1,185.5 L 85.9,185.5 L 87.7,185.5 L 89.4,185.5 L 91.2,185.5 L 93.0,185.5 L 94.7,185.5 L 96.5,185.5 L 98.3,185.5 L 100.0,185.5 L 101.8,185.5 L 103.6,185.5 L 105.3,185.5 L 107.1,185.5 L 108.9,185.5 L 110.6,185.5 L 112.4,185.5 L 114.2,185.5 L 115.9,185.5 L 117.7,185.5 L 119.5,185.5 L 121.2,185.5 L 123.0,185.5 L 124.8,185.5 L 126.5,185.5 L 128.3,185.5 L 130.1,185.5 L 131.8,185.5 L 133.6,185.5 L 135.4,185.5 L 137.1,185.5 L 138.9,185.5 L 140.7,185.5 L 142.4,185.5 L 144.2,185.5 L 146.0,185.5 L 147.7,185.5 L 149.5,185.5 L 151.3,185.5 L 153.0,185.5 L 154.8,185.5 L 156.6,185.5 L 158.3,185.5 L 160.1,185.5 L 161.9,185.5 L 163.6,185.5 L 165.4,185.5 L 167.2,185.5 L 168.9,185.5 L 170.7,185.5 L 172.5,185.5 L 174.2,185.5 L 176.0,185.5 L 177.8,185.5 L 179.5,185.5 L 181.3,185.5 L 183.1,185.5 L 184.8,185.5 L 186.6,185.5 L 188.4,185.5 L 190.1,185.5 L 191.9,185.5 L 193.7,185.5 L 195.4,185.5 L 197.2,185.5 L 199.0,185.5 L 200.7,185.5 L 202.5,185.5 L 204.3,185.5 L 206.0,185.5 L 207.8,185.5 L 209.6,185.5 L 211.3,185.5 L 213.1,185.5 L 214.9,185.5 L 216.6,185.5 L 218.4,185.5 L 220.2,185.5 L 221.9,185.5 L 223.7,185.5 L 225.5,185.5 L 227.2,185.5 L 229.0,185.5 L 230.8,185.5 L 232.5,185.5 L 234.3,185.5 L 236.1,185.5 L 237.8,185.5 L 239.6,185.5 L 241.4,185.5 L 243.1,185.5 L 244.9,185.5 L 246.7,185.5 L 248.4,185.5 L 250.2,185.5 L 252.0,185.5 L 253.7,185.5 L 255.5,185.5 L 257.3,185.5 L 259.0,185.5 L 260.8,185.5 L 262.6,185.5 L 264.3,185.5 L 266.1,185.5 L 267.9,185.5 L 269.6,185.5 L 271.4,185.5 L 273.2,185.5 L 274.9,185.5 L 276.7,185.5 L 278.5,185.5 L 280.2,185.5 L 282.0,185.5 L 283.8,185.5 L 285.5,185.5 L 287.3,185.5 L 289.1,185.5 L 290.8,185.5 L 292.6,185.5 L 294.4,185.5 L 296.1,185.5 L 297.9,185.5 L 299.7,185.5 L 301.4,185.5 L 303.2,185.5 L 305.0,185.5 L 306.7,185.5 L 308.5,185.5 L 310.3,185.5 L 312.0,185.5 L 313.8,185.5 L 315.6,185.5 L 317.3,185.5 L 319.1,185.5 L 320.9,185.5 L 322.6,185.5 L 324.4,185.5 L 326.2,185.5 L 327.9,185.5 L 329.7,185.5 L 331.5,185.5 L 333.2,185.5 L 335.0,185.5 L 336.8,185.5 L 338.5,185.5 L 340.3,185.5 L 342.1,185.5 L 343.8,185.5 L 345.6,185.5 L 347.4,185.5 L 349.1,185.5 L 350.9,185.5 L 352.7,185.5 L 354.4,185.5 L 356.2,185.5 L 358.0,185.5 L 359.7,185.5 L 361.5,185.5 L 363.3,185.5 L 365.0,185.5 L 366.8,185.5 L 368.6,185.5 L 370.3,185.5 L 372.1,185.5 L 373.9,185.5 L 375.6,185.5 L 377.4,185.5 L 379.2,185.5 L 380.9,185.5 L 382.7,185.5 L 384.5,185.5 L 386.2,185.5 L 388.0,185.5 L 389.8,185.5 L 391.5,185.5 L 393.3,185.5 L 395.1,185.5 L 396.8,185.5 L 398.6,185.5 L 400.4,185.5 L 402.1,185.5 L 403.9,185.5 L 405.7,185.5 L 407.4,185.5 L 409.2,185.5 L 411.0,185.5 L 412.7,185.5 L 414.5,185.5 L 416.3,185.5 L 418.0,185.5 L 419.8,185.5 L 421.6,185.5 L 423.3,185.5 L 425.1,184.1 L 426.9,182.8 L 428.6,181.4 L 430.4,180.1 L 432.2,178.7 L 433.9,177.4 L 435.7,176.0 L 437.5,174.7 L 439.2,173.3 L 441.0,172.0 L 442.8,170.7 L 444.5,169.3 L 446.3,168.0 L 448.1,166.6 L 449.8,165.3 L 451.6,163.9 L 453.4,162.6 L 455.1,161.2 L 456.9,159.9 L 458.7,158.5 L 460.4,157.2 L 462.2,155.9 L 464.0,154.5 L 465.7,153.2 L 467.5,151.8 L 469.3,150.5 L 471.0,149.1 L 472.8,147.8 L 474.6,146.4 L 476.3,145.1 L 478.1,143.7 L 479.9,142.4 L 481.6,141.1 L 483.4,139.7 L 485.2,138.4 L 486.9,137.0 L 488.7,135.7 L 490.5,134.3 L 492.2,133.0 L 494.0,131.6 L 495.8,130.3 L 497.5,128.9 L 499.3,127.6 L 501.1,126.3 L 502.8,124.9 L 504.6,123.6 L 506.4,122.2 L 508.1,120.9 L 509.9,119.5 L 511.7,118.2 L 513.4,116.8 L 515.2,115.5 L 517.0,114.1 L 518.7,112.8 L 520.5,111.5 L 522.3,110.1 L 524.0,108.8 L 525.8,107.4 L 527.6,106.1 L 529.3,104.7 L 531.1,103.4 L 532.9,102.0 L 534.6,100.7 L 536.4,99.3 L 538.2,98.0 L 539.9,96.7 L 541.7,95.3 L 543.5,94.0 L 545.2,92.6 L 547.0,91.3 L 548.8,89.9 L 550.5,88.6 L 552.3,87.2 L 554.1,85.9 L 555.8,84.5 L 557.6,83.2 L 559.4,81.9 L 561.1,80.5 L 562.9,79.2 L 564.7,77.8 L 566.4,76.5 L 568.2,75.1 L 570.0,73.8 L 571.7,72.4 L 573.5,71.1 L 575.3,69.7 L 577.0,68.4 L 578.8,67.1 L 580.6,65.7 L 582.3,64.4 L 584.1,63.0 L 585.9,61.7 L 587.6,60.3 L 589.4,59.0 L 591.2,57.6 L 592.9,56.3 L 594.7,54.9 L 596.5,53.6 L 598.2,52.3 L 600.0,50.9" fill="none" stroke="#fb923c" stroke-width="2.4"/>
<path d="M 70.0,185.5 L 71.8,185.5 L 73.5,185.4 L 75.3,185.4 L 77.1,185.4 L 78.8,185.4 L 80.6,185.4 L 82.4,185.4 L 84.1,185.3 L 85.9,185.3 L 87.7,185.3 L 89.4,185.3 L 91.2,185.2 L 93.0,185.2 L 94.7,185.1 L 96.5,185.1 L 98.3,185.0 L 100.0,185.0 L 101.8,184.9 L 103.6,184.8 L 105.3,184.8 L 107.1,184.7 L 108.9,184.6 L 110.6,184.6 L 112.4,184.5 L 114.2,184.4 L 115.9,184.3 L 117.7,184.2 L 119.5,184.1 L 121.2,184.0 L 123.0,183.9 L 124.8,183.8 L 126.5,183.7 L 128.3,183.6 L 130.1,183.5 L 131.8,183.4 L 133.6,183.3 L 135.4,183.2 L 137.1,183.0 L 138.9,182.9 L 140.7,182.8 L 142.4,182.7 L 144.2,182.5 L 146.0,182.4 L 147.7,182.2 L 149.5,182.1 L 151.3,181.9 L 153.0,181.8 L 154.8,181.6 L 156.6,181.5 L 158.3,181.3 L 160.1,181.1 L 161.9,181.0 L 163.6,180.8 L 165.4,180.6 L 167.2,180.5 L 168.9,180.3 L 170.7,180.1 L 172.5,179.9 L 174.2,179.7 L 176.0,179.5 L 177.8,179.3 L 179.5,179.1 L 181.3,178.9 L 183.1,178.7 L 184.8,178.5 L 186.6,178.3 L 188.4,178.1 L 190.1,177.9 L 191.9,177.7 L 193.7,177.5 L 195.4,177.2 L 197.2,177.0 L 199.0,176.8 L 200.7,176.5 L 202.5,176.3 L 204.3,176.1 L 206.0,175.8 L 207.8,175.6 L 209.6,175.3 L 211.3,175.1 L 213.1,174.8 L 214.9,174.6 L 216.6,174.3 L 218.4,174.1 L 220.2,173.8 L 221.9,173.5 L 223.7,173.3 L 225.5,173.0 L 227.2,172.7 L 229.0,172.5 L 230.8,172.2 L 232.5,171.9 L 234.3,171.6 L 236.1,171.3 L 237.8,171.0 L 239.6,170.8 L 241.4,170.5 L 243.1,170.2 L 244.9,169.9 L 246.7,169.6 L 248.4,169.3 L 250.2,169.0 L 252.0,168.7 L 253.7,168.4 L 255.5,168.0 L 257.3,167.7 L 259.0,167.4 L 260.8,167.1 L 262.6,166.8 L 264.3,166.4 L 266.1,166.1 L 267.9,165.8 L 269.6,165.5 L 271.4,165.1 L 273.2,164.8 L 274.9,164.5 L 276.7,164.1 L 278.5,163.8 L 280.2,163.4 L 282.0,163.1 L 283.8,162.7 L 285.5,162.4 L 287.3,162.0 L 289.1,161.7 L 290.8,161.3 L 292.6,161.0 L 294.4,160.6 L 296.1,160.3 L 297.9,159.9 L 299.7,159.5 L 301.4,159.2 L 303.2,158.8 L 305.0,158.4 L 306.7,158.0 L 308.5,157.7 L 310.3,157.3 L 312.0,156.9 L 313.8,156.5 L 315.6,156.2 L 317.3,155.8 L 319.1,155.4 L 320.9,155.0 L 322.6,154.6 L 324.4,154.2 L 326.2,153.8 L 327.9,153.4 L 329.7,153.0 L 331.5,152.6 L 333.2,152.2 L 335.0,151.8 L 336.8,151.4 L 338.5,151.0 L 340.3,150.6 L 342.1,150.2 L 343.8,149.8 L 345.6,149.4 L 347.4,149.0 L 349.1,148.5 L 350.9,148.1 L 352.7,147.7 L 354.4,147.3 L 356.2,146.9 L 358.0,146.4 L 359.7,146.0 L 361.5,145.6 L 363.3,145.1 L 365.0,144.7 L 366.8,144.3 L 368.6,143.9 L 370.3,143.4 L 372.1,143.0 L 373.9,142.5 L 375.6,142.1 L 377.4,141.7 L 379.2,141.2 L 380.9,140.8 L 382.7,140.3 L 384.5,139.9 L 386.2,139.4 L 388.0,139.0 L 389.8,138.5 L 391.5,138.1 L 393.3,137.6 L 395.1,137.2 L 396.8,136.7 L 398.6,136.3 L 400.4,135.8 L 402.1,135.3 L 403.9,134.9 L 405.7,134.4 L 407.4,134.0 L 409.2,133.5 L 411.0,133.0 L 412.7,132.6 L 414.5,132.1 L 416.3,131.6 L 418.0,131.1 L 419.8,130.7 L 421.6,130.2 L 423.3,129.7 L 425.1,129.2 L 426.9,128.8 L 428.6,128.3 L 430.4,127.8 L 432.2,127.3 L 433.9,126.8 L 435.7,126.4 L 437.5,125.9 L 439.2,125.4 L 441.0,124.9 L 442.8,124.4 L 444.5,123.9 L 446.3,123.4 L 448.1,123.0 L 449.8,122.5 L 451.6,122.0 L 453.4,121.5 L 455.1,121.0 L 456.9,120.5 L 458.7,120.0 L 460.4,119.5 L 462.2,119.0 L 464.0,118.5 L 465.7,118.0 L 467.5,117.5 L 469.3,117.0 L 471.0,116.5 L 472.8,116.0 L 474.6,115.5 L 476.3,115.0 L 478.1,114.4 L 479.9,113.9 L 481.6,113.4 L 483.4,112.9 L 485.2,112.4 L 486.9,111.9 L 488.7,111.4 L 490.5,110.9 L 492.2,110.3 L 494.0,109.8 L 495.8,109.3 L 497.5,108.8 L 499.3,108.3 L 501.1,107.8 L 502.8,107.2 L 504.6,106.7 L 506.4,106.2 L 508.1,105.7 L 509.9,105.1 L 511.7,104.6 L 513.4,104.1 L 515.2,103.6 L 517.0,103.0 L 518.7,102.5 L 520.5,102.0 L 522.3,101.5 L 524.0,100.9 L 525.8,100.4 L 527.6,99.9 L 529.3,99.3 L 531.1,98.8 L 532.9,98.3 L 534.6,97.7 L 536.4,97.2 L 538.2,96.7 L 539.9,96.1 L 541.7,95.6 L 543.5,95.0 L 545.2,94.5 L 547.0,94.0 L 548.8,93.4 L 550.5,92.9 L 552.3,92.3 L 554.1,91.8 L 555.8,91.2 L 557.6,90.7 L 559.4,90.2 L 561.1,89.6 L 562.9,89.1 L 564.7,88.5 L 566.4,88.0 L 568.2,87.4 L 570.0,86.9 L 571.7,86.3 L 573.5,85.8 L 575.3,85.2 L 577.0,84.7 L 578.8,84.1 L 580.6,83.6 L 582.3,83.0 L 584.1,82.5 L 585.9,81.9 L 587.6,81.3 L 589.4,80.8 L 591.2,80.2 L 592.9,79.7 L 594.7,79.1 L 596.5,78.6 L 598.2,78.0 L 600.0,77.4" fill="none" stroke="#f87171" stroke-width="2.2" stroke-dasharray="7 4"/>
<circle cx="388.0" cy="212.4" r="4.2" fill="#facc15"/>
<circle cx="458.7" cy="158.5" r="4.2" fill="#facc15"/>
<text x="380.0" y="217.4" font-size="10.5" text-anchor="end" fill="#facc15">sawtooth, |G| = 0.8</text>
<text x="467.7" y="170.5" font-size="10.5" text-anchor="start" fill="#facc15">sawtooth, |G| = 1.2</text>
<text x="429.3" y="38.0" font-size="10.5" text-anchor="start" fill="#a78bfa">C = 1</text>
<text x="98.3" y="272.9" font-size="10.5" text-anchor="start" fill="#2dd4bf">stable for upwind</text>
<line x1="98.3" y1="40.2" x2="120.3" y2="40.2" stroke="#fb923c" stroke-width="2.2"/>
<text x="126.3" y="44.2" font-size="11" text-anchor="start" fill="#fb923c">upwind: max |G| = max(1, 2C &#8722; 1)</text>
<line x1="98.3" y1="67.1" x2="120.3" y2="67.1" stroke="#f87171" stroke-width="2.2" stroke-dasharray="7 4"/>
<text x="126.3" y="71.1" font-size="11" text-anchor="start" fill="#f87171">FTCS: max |G| = (1 + C<tspan baseline-shift="super" font-size="8">2</tspan>)<tspan baseline-shift="super" font-size="8">1/2</tspan></text>
<text x="335.0" y="360.0" font-size="11.5" text-anchor="middle" fill="#cbd5e1">Courant number C</text>
<text x="20.0" y="172.0" font-size="11.5" text-anchor="middle" fill="#cbd5e1">|G|</text>
</svg>