<svg class="setupfig" viewBox="0 0 680 400" width="100%" role="img" aria-label="Density against radius at time 1 for the Sedov point blast of Kamm and Timmes. The exact profile rises steeply to 6 at radius 1 and drops to 1 outside. The Godunov profiles at 100, 200 and 400 cells peak at 3.06, 3.76 and 4.40, just inside radius 1, and their outer edges approach radius 1 as the cells shrink.">
<rect x="70" y="24" width="570" height="316" fill="none" stroke="#334155" stroke-width="1"/>
<line x1="70.0" y1="340.0" x2="70.0" y2="345.0" stroke="#334155" stroke-width="1"/>
<text x="70.0" y="358.0" font-size="10.5" text-anchor="middle" fill="#94a3b8">0</text>
<line x1="165.0" y1="340.0" x2="165.0" y2="345.0" stroke="#334155" stroke-width="1"/>
<text x="165.0" y="358.0" font-size="10.5" text-anchor="middle" fill="#94a3b8">0.2</text>
<line x1="260.0" y1="340.0" x2="260.0" y2="345.0" stroke="#334155" stroke-width="1"/>
<text x="260.0" y="358.0" font-size="10.5" text-anchor="middle" fill="#94a3b8">0.4</text>
<line x1="355.0" y1="340.0" x2="355.0" y2="345.0" stroke="#334155" stroke-width="1"/>
<text x="355.0" y="358.0" font-size="10.5" text-anchor="middle" fill="#94a3b8">0.6</text>
<line x1="450.0" y1="340.0" x2="450.0" y2="345.0" stroke="#334155" stroke-width="1"/>
<text x="450.0" y="358.0" font-size="10.5" text-anchor="middle" fill="#94a3b8">0.8</text>
<line x1="545.0" y1="340.0" x2="545.0" y2="345.0" stroke="#334155" stroke-width="1"/>
<text x="545.0" y="358.0" font-size="10.5" text-anchor="middle" fill="#94a3b8">1</text>
<line x1="640.0" y1="340.0" x2="640.0" y2="345.0" stroke="#334155" stroke-width="1"/>
<text x="640.0" y="358.0" font-size="10.5" text-anchor="middle" fill="#94a3b8">1.2</text>
<line x1="65.0" y1="340.0" x2="70.0" y2="340.0" stroke="#334155" stroke-width="1"/>
<text x="62.0" y="344.0" font-size="10.5" text-anchor="end" fill="#94a3b8">0</text>
<line x1="65.0" y1="291.4" x2="70.0" y2="291.4" stroke="#334155" stroke-width="1"/>
<text x="62.0" y="295.4" font-size="10.5" text-anchor="end" fill="#94a3b8">1</text>
<line x1="65.0" y1="242.8" x2="70.0" y2="242.8" stroke="#334155" stroke-width="1"/>
<text x="62.0" y="246.8" font-size="10.5" text-anchor="end" fill="#94a3b8">2</text>
<line x1="65.0" y1="194.2" x2="70.0" y2="194.2" stroke="#334155" stroke-width="1"/>
<text x="62.0" y="198.2" font-size="10.5" text-anchor="end" fill="#94a3b8">3</text>
<line x1="65.0" y1="145.5" x2="70.0" y2="145.5" stroke="#334155" stroke-width="1"/>
<text x="62.0" y="149.5" font-size="10.5" text-anchor="end" fill="#94a3b8">4</text>
<line x1="65.0" y1="96.9" x2="70.0" y2="96.9" stroke="#334155" stroke-width="1"/>
<text x="62.0" y="100.9" font-size="10.5" text-anchor="end" fill="#94a3b8">5</text>
<line x1="65.0" y1="48.3" x2="70.0" y2="48.3" stroke="#334155" stroke-width="1"/>
<text x="62.0" y="52.3" font-size="10.5" text-anchor="end" fill="#94a3b8">6</text>
<path d="M 70.4,340.0 L 70.4,340.0 L 70.4,340.0 L 70.4,340.0 L 70.4,340.0 L 70.4,340.0 L 70.4,340.0 L 70.4,340.0 L 70.4,340.0 L 70.4,340.0 L 70.4,340.0 L 70.4,340.0 L 70.4,340.0 L 70.4,340.0 L 70.4,340.0 L 70.4,340.0 L 70.4,340.0 L 70.4,340.0 L 70.4,340.0 L 70.4,340.0 L 70.4,340.0 L 70.4,340.0 L 70.5,340.0 L 70.5,340.0 L 70.5,340.0 L 70.5,340.0 L 70.5,340.0 L 70.5,340.0 L 70.5,340.0 L 70.5,340.0 L 70.5,340.0 L 70.5,340.0 L 70.5,340.0 L 70.5,340.0 L 70.5,340.0 L 70.5,340.0 L 70.5,340.0 L 70.5,340.0 L 70.5,340.0 L 70.5,340.0 L 70.5,340.0 L 70.5,340.0 L 70.5,340.0 L 70.5,340.0 L 70.5,340.0 L 70.5,340.0 L 70.5,340.0 L 70.5,340.0 L 70.5,340.0 L 70.5,340.0 L 70.5,340.0 L 70.5,340.0 L 70.5,340.0 L 70.5,340.0 L 70.5,340.0 L 70.5,340.0 L 70.5,340.0 L 70.5,340.0 L 70.5,340.0 L 70.5,340.0 L 70.5,340.0 L 70.5,340.0 L 70.5,340.0 L 70.5,340.0 L 70.5,340.0 L 70.5,340.0 L 70.5,340.0 L 70.5,340.0 L 70.5,340.0 L 70.5,340.0 L 70.5,340.0 L 70.5,340.0 L 70.5,340.0 L 70.5,340.0 L 70.5,340.0 L 70.5,340.0 L 70.5,340.0 L 70.5,340.0 L 70.5,340.0 L 70.5,340.0 L 70.5,340.0 L 70.5,340.0 L 70.5,340.0 L 70.5,340.0 L 70.5,340.0 L 70.5,340.0 L 70.5,340.0 L 70.5,340.0 L 70.5,340.0 L 70.5,340.0 L 70.5,340.0 L 70.5,340.0 L 70.5,340.0 L 70.5,340.0 L 70.5,340.0 L 70.5,340.0 L 70.5,340.0 L 70.5,340.0 L 70.5,340.0 L 70.5,340.0 L 70.5,340.0 L 70.5,340.0 L 70.5,340.0 L 70.5,340.0 L 70.5,340.0 L 70.5,340.0 L 70.5,340.0 L 70.5,340.0 L 70.5,340.0 L 70.5,340.0 L 70.5,340.0 L 70.5,340.0 L 70.5,340.0 L 70.5,340.0 L 70.5,340.0 L 70.5,340.0 L 70.5,340.0 L 70.5,340.0 L 70.5,340.0 L 70.5,340.0 L 70.5,340.0 L 70.5,340.0 L 70.5,340.0 L 70.5,340.0 L 70.5,340.0 L 70.5,340.0 L 70.5,340.0 L 70.5,340.0 L 70.5,340.0 L 70.5,340.0 L 70.5,340.0 L 70.5,340.0 L 70.5,340.0 L 70.5,340.0 L 70.5,340.0 L 70.5,340.0 L 70.5,340.0 L 70.6,340.0 L 70.6,340.0 L 70.6,340.0 L 70.6,340.0 L 70.6,340.0 L 70.6,340.0 L 70.6,340.0 L 70.6,340.0 L 70.6,340.0 L 70.6,340.0 L 70.6,340.0 L 70.6,340.0 L 70.6,340.0 L 70.6,340.0 L 70.6,340.0 L 70.6,340.0 L 70.6,340.0 L 70.6,340.0 L 70.6,340.0 L 70.6,340.0 L 70.6,340.0 L 70.6,340.0 L 70.6,340.0 L 70.6,340.0 L 70.6,340.0 L 70.6,340.0 L 70.6,340.0 L 70.6,340.0 L 70.6,340.0 L 70.6,340.0 L 70.6,340.0 L 70.6,340.0 L 70.6,340.0 L 70.6,340.0 L 70.6,340.0 L 70.6,340.0 L 70.6,340.0 L 70.6,340.0 L 70.6,340.0 L 70.6,340.0 L 70.6,340.0 L 70.6,340.0 L 70.6,340.0 L 70.6,340.0 L 70.6,340.0 L 70.6,340.0 L 70.6,340.0 L 70.6,340.0 L 70.6,340.0 L 70.6,340.0 L 70.6,340.0 L 70.6,340.0 L 70.6,340.0 L 70.6,340.0 L 70.6,340.0 L 70.6,340.0 L 70.6,340.0 L 70.6,340.0 L 70.6,340.0 L 70.6,340.0 L 70.6,340.0 L 70.6,340.0 L 70.6,340.0 L 70.6,340.0 L 70.6,340.0 L 70.6,340.0 L 70.6,340.0 L 70.6,340.0 L 70.6,340.0 L 70.6,340.0 L 70.6,340.0 L 70.6,340.0 L 70.6,340.0 L 70.6,340.0 L 70.6,340.0 L 70.6,340.0 L 70.6,340.0 L 70.6,340.0 L 70.6,340.0 L 70.6,340.0 L 70.6,340.0 L 70.6,340.0 L 70.6,340.0 L 70.6,340.0 L 70.6,340.0 L 70.6,340.0 L 70.6,340.0 L 70.6,340.0 L 70.6,340.0 L 70.6,340.0 L 70.6,340.0 L 70.6,340.0 L 70.6,340.0 L 70.6,340.0 L 70.6,340.0 L 70.7,340.0 L 70.7,340.0 L 70.7,340.0 L 70.7,340.0 L 70.7,340.0 L 70.7,340.0 L 70.7,340.0 L 70.7,340.0 L 70.7,340.0 L 70.7,340.0 L 70.7,340.0 L 70.7,340.0 L 70.7,340.0 L 70.7,340.0 L 70.7,340.0 L 70.7,340.0 L 70.7,340.0 L 70.7,340.0 L 70.7,340.0 L 70.7,340.0 L 70.7,340.0 L 70.7,340.0 L 70.7,340.0 L 70.7,340.0 L 70.7,340.0 L 70.7,340.0 L 70.7,340.0 L 70.7,340.0 L 70.7,340.0 L 70.7,340.0 L 70.7,340.0 L 70.7,340.0 L 70.7,340.0 L 70.7,340.0 L 70.7,340.0 L 70.7,340.0 L 70.7,340.0 L 70.7,340.0 L 70.7,340.0 L 70.7,340.0 L 70.7,340.0 L 70.7,340.0 L 70.7,340.0 L 70.7,340.0 L 70.7,340.0 L 70.7,340.0 L 70.7,340.0 L 70.7,340.0 L 70.7,340.0 L 70.7,340.0 L 70.7,340.0 L 70.7,340.0 L 70.7,340.0 L 70.7,340.0 L 70.7,340.0 L 70.7,340.0 L 70.7,340.0 L 70.7,340.0 L 70.7,340.0 L 70.7,340.0 L 70.7,340.0 L 70.7,340.0 L 70.7,340.0 L 70.7,340.0 L 70.7,340.0 L 70.7,340.0 L 70.7,340.0 L 70.7,340.0 L 70.7,340.0 L 70.7,340.0 L 70.7,340.0 L 70.7,340.0 L 70.7,340.0 L 70.7,340.0 L 70.7,340.0 L 70.7,340.0 L 70.7,340.0 L 70.7,340.0 L 70.7,340.0 L 70.7,340.0 L 70.7,340.0 L 70.7,340.0 L 70.8,340.0 L 70.8,340.0 L 70.8,340.0 L 70.8,340.0 L 70.8,340.0 L 70.8,340.0 L 70.8,340.0 L 70.8,340.0 L 70.8,340.0 L 70.8,340.0 L 70.8,340.0 L 70.8,340.0 L 70.8,340.0 L 70.8,340.0 L 70.8,340.0 L 70.8,340.0 L 70.8,340.0 L 70.8,340.0 L 70.8,340.0 L 70.8,340.0 L 70.8,340.0 L 70.8,340.0 L 70.8,340.0 L 70.8,340.0 L 70.8,340.0 L 70.8,340.0 L 70.8,340.0 L 70.8,340.0 L 70.8,340.0 L 70.8,340.0 L 70.8,340.0 L 70.8,340.0 L 70.8,340.0 L 70.8,340.0 L 70.8,340.0 L 70.8,340.0 L 70.8,340.0 L 70.8,340.0 L 70.8,340.0 L 70.8,340.0 L 70.8,340.0 L 70.8,340.0 L 70.8,340.0 L 70.8,340.0 L 70.8,340.0 L 70.8,340.0 L 70.8,340.0 L 70.8,340.0 L 70.8,340.0 L 70.8,340.0 L 70.8,340.0 L 70.8,340.0 L 70.8,340.0 L 70.8,340.0 L 70.8,340.0 L 70.8,340.0 L 70.8,340.0 L 70.8,340.0 L 70.8,340.0 L 70.8,340.0 L 70.8,340.0 L 70.8,340.0 L 70.8,340.0 L 70.8,340.0 L 70.8,340.0 L 70.8,340.0 L 70.8,340.0 L 70.8,340.0 L 70.8,340.0 L 70.8,340.0 L 70.8,340.0 L 70.8,340.0 L 70.9,340.0 L 70.9,340.0 L 70.9,340.0 L 70.9,340.0 L 70.9,340.0 L 70.9,340.0 L 70.9,340.0 L 70.9,340.0 L 70.9,340.0 L 70.9,340.0 L 70.9,340.0 L 70.9,340.0 L 70.9,340.0 L 70.9,340.0 L 70.9,340.0 L 70.9,340.0 L 70.9,340.0 L 70.9,340.0 L 70.9,340.0 L 70.9,340.0 L 70.9,340.0 L 70.9,340.0 L 70.9,340.0 L 70.9,340.0 L 70.9,340.0 L 70.9,340.0 L 70.9,340.0 L 70.9,340.0 L 70.9,340.0 L 70.9,340.0 L 70.9,340.0 L 70.9,340.0 L 70.9,340.0 L 70.9,340.0 L 70.9,340.0 L 70.9,340.0 L 70.9,340.0 L 70.9,340.0 L 70.9,340.0 L 70.9,340.0 L 70.9,340.0 L 70.9,340.0 L 70.9,340.0 L 70.9,340.0 L 70.9,340.0 L 70.9,340.0 L 70.9,340.0 L 70.9,340.0 L 70.9,340.0 L 70.9,340.0 L 70.9,340.0 L 70.9,340.0 L 70.9,340.0 L 70.9,340.0 L 70.9,340.0 L 70.9,340.0 L 70.9,340.0 L 70.9,340.0 L 70.9,340.0 L 70.9,340.0 L 70.9,340.0 L 70.9,340.0 L 70.9,340.0 L 71.0,340.0 L 71.0,340.0 L 71.0,340.0 L 71.0,340.0 L 71.0,340.0 L 71.0,340.0 L 71.0,340.0 L 71.0,340.0 L 71.0,340.0 L 71.0,340.0 L 71.0,340.0 L 71.0,340.0 L 71.0,340.0 L 71.0,340.0 L 71.0,340.0 L 71.0,340.0 L 71.0,340.0 L 71.0,340.0 L 71.0,340.0 L 71.0,340.0 L 71.0,340.0 L 71.0,340.0 L 71.0,340.0 L 71.0,340.0 L 71.0,340.0 L 71.0,340.0 L 71.0,340.0 L 71.0,340.0 L 71.0,340.0 L 71.0,340.0 L 71.0,340.0 L 71.0,340.0 L 71.0,340.0 L 71.0,340.0 L 71.0,340.0 L 71.0,340.0 L 71.0,340.0 L 71.0,340.0 L 71.0,340.0 L 71.0,340.0 L 71.0,340.0 L 71.0,340.0 L 71.0,340.0 L 71.0,340.0 L 71.0,340.0 L 71.0,340.0 L 71.0,340.0 L 71.0,340.0 L 71.0,340.0 L 71.0,340.0 L 71.0,340.0 L 71.0,340.0 L 71.0,340.0 L 71.0,340.0 L 71.0,340.0 L 71.0,340.0 L 71.0,340.0 L 71.1,340.0 L 71.1,340.0 L 71.1,340.0 L 71.1,340.0 L 71.1,340.0 L 71.1,340.0 L 71.1,340.0 L 71.1,340.0 L 71.1,340.0 L 71.1,340.0 L 71.1,340.0 L 71.1,340.0 L 71.1,340.0 L 71.1,340.0 L 71.1,340.0 L 71.1,340.0 L 71.1,340.0 L 71.1,340.0 L 71.1,340.0 L 71.1,340.0 L 71.1,340.0 L 71.1,340.0 L 71.1,340.0 L 71.1,340.0 L 71.1,340.0 L 71.1,340.0 L 71.1,340.0 L 71.1,340.0 L 71.1,340.0 L 71.1,340.0 L 71.1,340.0 L 71.1,340.0 L 71.1,340.0 L 71.1,340.0 L 71.1,340.0 L 71.1,340.0 L 71.1,340.0 L 71.1,340.0 L 71.1,340.0 L 71.1,340.0 L 71.1,340.0 L 71.1,340.0 L 71.1,340.0 L 71.1,340.0 L 71.1,340.0 L 71.1,340.0 L 71.1,340.0 L 71.1,340.0 L 71.1,340.0 L 71.1,340.0 L 71.1,340.0 L 71.1,340.0 L 71.2,340.0 L 71.2,340.0 L 71.2,340.0 L 71.2,340.0 L 71.2,340.0 L 71.2,340.0 L 71.2,340.0 L 71.2,340.0 L 71.2,340.0 L 71.2,340.0 L 71.2,340.0 L 71.2,340.0 L 71.2,340.0 L 71.2,340.0 L 71.2,340.0 L 71.2,340.0 L 71.2,340.0 L 71.2,340.0 L 71.2,340.0 L 71.2,340.0 L 71.2,340.0 L 71.2,340.0 L 71.2,340.0 L 71.2,340.0 L 71.2,340.0 L 71.2,340.0 L 71.2,340.0 L 71.2,340.0 L 71.2,340.0 L 71.2,340.0 L 71.2,340.0 L 71.2,340.0 L 71.2,340.0 L 71.2,340.0 L 71.2,340.0 L 71.2,340.0 L 71.2,340.0 L 71.2,340.0 L 71.2,340.0 L 71.2,340.0 L 71.2,340.0 L 71.2,340.0 L 71.2,340.0 L 71.2,340.0 L 71.2,340.0 L 71.2,340.0 L 71.2,340.0 L 71.2,340.0 L 71.3,340.0 L 71.3,340.0 L 71.3,340.0 L 71.3,340.0 L 71.3,340.0 L 71.3,340.0 L 71.3,340.0 L 71.3,340.0 L 71.3,340.0 L 71.3,340.0 L 71.3,340.0 L 71.3,340.0 L 71.3,340.0 L 71.3,340.0 L 71.3,340.0 L 71.3,340.0 L 71.3,340.0 L 71.3,340.0 L 71.3,340.0 L 71.3,340.0 L 71.3,340.0 L 71.3,340.0 L 71.3,340.0 L 71.3,340.0 L 71.3,340.0 L 71.3,340.0 L 71.3,340.0 L 71.3,340.0 L 71.3,340.0 L 71.3,340.0 L 71.3,340.0 L 71.3,340.0 L 71.3,340.0 L 71.3,340.0 L 71.3,340.0 L 71.3,340.0 L 71.3,340.0 L 71.3,340.0 L 71.3,340.0 L 71.3,340.0 L 71.3,340.0 L 71.3,340.0 L 71.3,340.0 L 71.3,340.0 L 71.4,340.0 L 71.4,340.0 L 71.4,340.0 L 71.4,340.0 L 71.4,340.0 L 71.4,340.0 L 71.4,340.0 L 71.4,340.0 L 71.4,340.0 L 71.4,340.0 L 71.4,340.0 L 71.4,340.0 L 71.4,340.0 L 71.4,340.0 L 71.4,340.0 L 71.4,340.0 L 71.4,340.0 L 71.4,340.0 L 71.4,340.0 L 71.4,340.0 L 71.4,340.0 L 71.4,340.0 L 71.4,340.0 L 71.4,340.0 L 71.4,340.0 L 71.4,340.0 L 71.4,340.0 L 71.4,340.0 L 71.4,340.0 L 71.4,340.0 L 71.4,340.0 L 71.4,340.0 L 71.4,340.0 L 71.4,340.0 L 71.4,340.0 L 71.4,340.0 L 71.4,340.0 L 71.4,340.0 L 71.4,340.0 L 71.4,340.0 L 71.4,340.0 L 71.5,340.0 L 71.5,340.0 L 71.5,340.0 L 71.5,340.0 L 71.5,340.0 L 71.5,340.0 L 71.5,340.0 L 71.5,340.0 L 71.5,340.0 L 71.5,340.0 L 71.5,340.0 L 71.5,340.0 L 71.5,340.0 L 71.5,340.0 L 71.5,340.0 L 71.5,340.0 L 71.5,340.0 L 71.5,340.0 L 71.5,340.0 L 71.5,340.0 L 71.5,340.0 L 71.5,340.0 L 71.5,340.0 L 71.5,340.0 L 71.5,340.0 L 71.5,340.0 L 71.5,340.0 L 71.5,340.0 L 71.5,340.0 L 71.5,340.0 L 71.5,340.0 L 71.5,340.0 L 71.5,340.0 L 71.5,340.0 L 71.5,340.0 L 71.5,340.0 L 71.5,340.0 L 71.5,340.0 L 71.6,340.0 L 71.6,340.0 L 71.6,340.0 L 71.6,340.0 L 71.6,340.0 L 71.6,340.0 L 71.6,340.0 L 71.6,340.0 L 71.6,340.0 L 71.6,340.0 L 71.6,340.0 L 71.6,340.0 L 71.6,340.0 L 71.6,340.0 L 71.6,340.0 L 71.6,340.0 L 71.6,340.0 L 71.6,340.0 L 71.6,340.0 L 71.6,340.0 L 71.6,340.0 L 71.6,340.0 L 71.6,340.0 L 71.6,340.0 L 71.6,340.0 L 71.6,340.0 L 71.6,340.0 L 71.6,340.0 L 71.6,340.0 L 71.6,340.0 L 71.6,340.0 L 71.6,340.0 L 71.6,340.0 L 71.6,340.0 L 71.6,340.0 L 71.6,340.0 L 71.7,340.0 L 71.7,340.0 L 71.7,340.0 L 71.7,340.0 L 71.7,340.0 L 71.7,340.0 L 71.7,340.0 L 71.7,340.0 L 71.7,340.0 L 71.7,340.0 L 71.7,340.0 L 71.7,340.0 L 71.7,340.0 L 71.7,340.0 L 71.7,340.0 L 71.7,340.0 L 71.7,340.0 L 71.7,340.0 L 71.7,340.0 L 71.7,340.0 L 71.7,340.0 L 71.7,340.0 L 71.7,340.0 L 71.7,340.0 L 71.7,340.0 L 71.7,340.0 L 71.7,340.0 L 71.7,340.0 L 71.7,340.0 L 71.7,340.0 L 71.7,340.0 L 71.7,340.0 L 71.7,340.0 L 71.8,340.0 L 71.8,340.0 L 71.8,340.0 L 71.8,340.0 L 71.8,340.0 L 71.8,340.0 L 71.8,340.0 L 71.8,340.0 L 71.8,340.0 L 71.8,340.0 L 71.8,340.0 L 71.8,340.0 L 71.8,340.0 L 71.8,340.0 L 71.8,340.0 L 71.8,340.0 L 71.8,340.0 L 71.8,340.0 L 71.8,340.0 L 71.8,340.0 L 71.8,340.0 L 71.8,340.0 L 71.8,340.0 L 71.8,340.0 L 71.8,340.0 L 71.8,340.0 L 71.8,340.0 L 71.8,340.0 L 71.8,340.0 L 71.8,340.0 L 71.8,340.0 L 71.8,340.0 L 71.9,340.0 L 71.9,340.0 L 71.9,340.0 L 71.9,340.0 L 71.9,340.0 L 71.9,340.0 L 71.9,340.0 L 71.9,340.0 L 71.9,340.0 L 71.9,340.0 L 71.9,340.0 L 71.9,340.0 L 71.9,340.0 L 71.9,340.0 L 71.9,340.0 L 71.9,340.0 L 71.9,340.0 L 71.9,340.0 L 71.9,340.0 L 71.9,340.0 L 71.9,340.0 L 71.9,340.0 L 71.9,340.0 L 71.9,340.0 L 71.9,340.0 L 71.9,340.0 L 71.9,340.0 L 71.9,340.0 L 71.9,340.0 L 71.9,340.0 L 72.0,340.0 L 72.0,340.0 L 72.0,340.0 L 72.0,340.0 L 72.0,340.0 L 72.0,340.0 L 72.0,340.0 L 72.0,340.0 L 72.0,340.0 L 72.0,340.0 L 72.0,340.0 L 72.0,340.0 L 72.0,340.0 L 72.0,340.0 L 72.0,340.0 L 72.0,340.0 L 72.0,340.0 L 72.0,340.0 L 72.0,340.0 L 72.0,340.0 L 72.0,340.0 L 72.0,340.0 L 72.0,340.0 L 72.0,340.0 L 72.0,340.0 L 72.0,340.0 L 72.0,340.0 L 72.0,340.0 L 72.0,340.0 L 72.1,340.0 L 72.1,340.0 L 72.1,340.0 L 72.1,340.0 L 72.1,340.0 L 72.1,340.0 L 72.1,340.0 L 72.1,340.0 L 72.1,340.0 L 72.1,340.0 L 72.1,340.0 L 72.1,340.0 L 72.1,340.0 L 72.1,340.0 L 72.1,340.0 L 72.1,340.0 L 72.1,340.0 L 72.1,340.0 L 72.1,340.0 L 72.1,340.0 L 72.1,340.0 L 72.1,340.0 L 72.1,340.0 L 72.1,340.0 L 72.1,340.0 L 72.1,340.0 L 72.1,340.0 L 72.2,340.0 L 72.2,340.0 L 72.2,340.0 L 72.2,340.0 L 72.2,340.0 L 72.2,340.0 L 72.2,340.0 L 72.2,340.0 L 72.2,340.0 L 72.2,340.0 L 72.2,340.0 L 72.2,340.0 L 72.2,340.0 L 72.2,340.0 L 72.2,340.0 L 72.2,340.0 L 72.2,340.0 L 72.2,340.0 L 72.2,340.0 L 72.2,340.0 L 72.2,340.0 L 72.2,340.0 L 72.2,340.0 L 72.2,340.0 L 72.2,340.0 L 72.2,340.0 L 72.3,340.0 L 72.3,340.0 L 72.3,340.0 L 72.3,340.0 L 72.3,340.0 L 72.3,340.0 L 72.3,340.0 L 72.3,340.0 L 72.3,340.0 L 72.3,340.0 L 72.3,340.0 L 72.3,340.0 L 72.3,340.0 L 72.3,340.0 L 72.3,340.0 L 72.3,340.0 L 72.3,340.0 L 72.3,340.0 L 72.3,340.0 L 72.3,340.0 L 72.3,340.0 L 72.3,340.0 L 72.3,340.0 L 72.3,340.0 L 72.3,340.0 L 72.4,340.0 L 72.4,340.0 L 72.4,340.0 L 72.4,340.0 L 72.4,340.0 L 72.4,340.0 L 72.4,340.0 L 72.4,340.0 L 72.4,340.0 L 72.4,340.0 L 72.4,340.0 L 72.4,340.0 L 72.4,340.0 L 72.4,340.0 L 72.4,340.0 L 72.4,340.0 L 72.4,340.0 L 72.4,340.0 L 72.4,340.0 L 72.4,340.0 L 72.4,340.0 L 72.4,340.0 L 72.4,340.0 L 72.4,340.0 L 72.5,340.0 L 72.5,340.0 L 72.5,340.0 L 72.5,340.0 L 72.5,340.0 L 72.5,340.0 L 72.5,340.0 L 72.5,340.0 L 72.5,340.0 L 72.5,340.0 L 72.5,340.0 L 72.5,340.0 L 72.5,340.0 L 72.5,340.0 L 72.5,340.0 L 72.5,340.0 L 72.5,340.0 L 72.5,340.0 L 72.5,340.0 L 72.5,340.0 L 72.5,340.0 L 72.5,340.0 L 72.5,340.0 L 72.6,340.0 L 72.6,340.0 L 72.6,340.0 L 72.6,340.0 L 72.6,340.0 L 72.6,340.0 L 72.6,340.0 L 72.6,340.0 L 72.6,340.0 L 72.6,340.0 L 72.6,340.0 L 72.6,340.0 L 72.6,340.0 L 72.6,340.0 L 72.6,340.0 L 72.6,340.0 L 72.6,340.0 L 72.6,340.0 L 72.6,340.0 L 72.6,340.0 L 72.6,340.0 L 72.7,340.0 L 72.7,340.0 L 72.7,340.0 L 72.7,340.0 L 72.7,340.0 L 72.7,340.0 L 72.7,340.0 L 72.7,340.0 L 72.7,340.0 L 72.7,340.0 L 72.7,340.0 L 72.7,340.0 L 72.7,340.0 L 72.7,340.0 L 72.7,340.0 L 72.7,340.0 L 72.7,340.0 L 72.7,340.0 L 72.7,340.0 L 72.7,340.0 L 72.7,340.0 L 72.7,340.0 L 72.8,340.0 L 72.8,340.0 L 72.8,340.0 L 72.8,340.0 L 72.8,340.0 L 72.8,340.0 L 72.8,340.0 L 72.8,340.0 L 72.8,340.0 L 72.8,340.0 L 72.8,340.0 L 72.8,340.0 L 72.8,340.0 L 72.8,340.0 L 72.8,340.0 L 72.8,340.0 L 72.8,340.0 L 72.8,340.0 L 72.8,340.0 L 72.8,340.0 L 72.9,340.0 L 72.9,340.0 L 72.9,340.0 L 72.9,340.0 L 72.9,340.0 L 72.9,340.0 L 72.9,340.0 L 72.9,340.0 L 72.9,340.0 L 72.9,340.0 L 72.9,340.0 L 72.9,340.0 L 72.9,340.0 L 72.9,340.0 L 72.9,340.0 L 72.9,340.0 L 72.9,340.0 L 72.9,340.0 L 72.9,340.0 L 72.9,340.0 L 73.0,340.0 L 73.0,340.0 L 73.0,340.0 L 73.0,340.0 L 73.0,340.0 L 73.0,340.0 L 73.0,340.0 L 73.0,340.0 L 73.0,340.0 L 73.0,340.0 L 73.0,340.0 L 73.0,340.0 L 73.0,340.0 L 73.0,340.0 L 73.0,340.0 L 73.0,340.0 L 73.0,340.0 L 73.0,340.0 L 73.0,340.0 L 73.1,340.0 L 73.1,340.0 L 73.1,340.0 L 73.1,340.0 L 73.1,340.0 L 73.1,340.0 L 73.1,340.0 L 73.1,340.0 L 73.1,340.0 L 73.1,340.0 L 73.1,340.0 L 73.1,340.0 L 73.1,340.0 L 73.1,340.0 L 73.1,340.0 L 73.1,340.0 L 73.1,340.0 L 73.1,340.0 L 73.2,340.0 L 73.2,340.0 L 73.2,340.0 L 73.2,340.0 L 73.2,340.0 L 73.2,340.0 L 73.2,340.0 L 73.2,340.0 L 73.2,340.0 L 73.2,340.0 L 73.2,340.0 L 73.2,340.0 L 73.2,340.0 L 73.2,340.0 L 73.2,340.0 L 73.2,340.0 L 73.2,340.0 L 73.2,340.0 L 73.3,340.0 L 73.3,340.0 L 73.3,340.0 L 73.3,340.0 L 73.3,340.0 L 73.3,340.0 L 73.3,340.0 L 73.3,340.0 L 73.3,340.0 L 73.3,340.0 L 73.3,340.0 L 73.3,340.0 L 73.3,340.0 L 73.3,340.0 L 73.3,340.0 L 73.3,340.0 L 73.3,340.0 L 73.4,340.0 L 73.4,340.0 L 73.4,340.0 L 73.4,340.0 L 73.4,340.0 L 73.4,340.0 L 73.4,340.0 L 73.4,340.0 L 73.4,340.0 L 73.4,340.0 L 73.4,340.0 L 73.4,340.0 L 73.4,340.0 L 73.4,340.0 L 73.4,340.0 L 73.4,340.0 L 73.4,340.0 L 73.5,340.0 L 73.5,340.0 L 73.5,340.0 L 73.5,340.0 L 73.5,340.0 L 73.5,340.0 L 73.5,340.0 L 73.5,340.0 L 73.5,340.0 L 73.5,340.0 L 73.5,340.0 L 73.5,340.0 L 73.5,340.0 L 73.5,340.0 L 73.5,340.0 L 73.5,340.0 L 73.5,340.0 L 73.6,340.0 L 73.6,340.0 L 73.6,340.0 L 73.6,340.0 L 73.6,340.0 L 73.6,340.0 L 73.6,340.0 L 73.6,340.0 L 73.6,340.0 L 73.6,340.0 L 73.6,340.0 L 73.6,340.0 L 73.6,340.0 L 73.6,340.0 L 73.6,340.0 L 73.7,340.0 L 73.7,340.0 L 73.7,340.0 L 73.7,340.0 L 73.7,340.0 L 73.7,340.0 L 73.7,340.0 L 73.7,340.0 L 73.7,340.0 L 73.7,340.0 L 73.7,340.0 L 73.7,340.0 L 73.7,340.0 L 73.7,340.0 L 73.7,340.0 L 73.7,340.0 L 73.8,340.0 L 73.8,340.0 L 73.8,340.0 L 73.8,340.0 L 73.8,340.0 L 73.8,340.0 L 73.8,340.0 L 73.8,340.0 L 73.8,340.0 L 73.8,340.0 L 73.8,340.0 L 73.8,340.0 L 73.8,340.0 L 73.8,340.0 L 73.8,340.0 L 73.9,340.0 L 73.9,340.0 L 73.9,340.0 L 73.9,340.0 L 73.9,340.0 L 73.9,340.0 L 73.9,340.0 L 73.9,340.0 L 73.9,340.0 L 73.9,340.0 L 73.9,340.0 L 73.9,340.0 L 73.9,340.0 L 73.9,340.0 L 73.9,340.0 L 74.0,340.0 L 74.0,340.0 L 74.0,340.0 L 74.0,340.0 L 74.0,340.0 L 74.0,340.0 L 74.0,340.0 L 74.0,340.0 L 74.0,340.0 L 74.0,340.0 L 74.0,340.0 L 74.0,340.0 L 74.0,340.0 L 74.0,340.0 L 74.1,340.0 L 74.1,340.0 L 74.1,340.0 L 74.1,340.0 L 74.1,340.0 L 74.1,340.0 L 74.1,340.0 L 74.1,340.0 L 74.1,340.0 L 74.1,340.0 L 74.1,340.0 L 74.1,340.0 L 74.1,340.0 L 74.1,340.0 L 74.2,340.0 L 74.2,340.0 L 74.2,340.0 L 74.2,340.0 L 74.2,340.0 L 74.2,340.0 L 74.2,340.0 L 74.2,340.0 L 74.2,340.0 L 74.2,340.0 L 74.2,340.0 L 74.2,340.0 L 74.2,340.0 L 74.3,340.0 L 74.3,340.0 L 74.3,340.0 L 74.3,340.0 L 74.3,340.0 L 74.3,340.0 L 74.3,340.0 L 74.3,340.0 L 74.3,340.0 L 74.3,340.0 L 74.3,340.0 L 74.3,340.0 L 74.3,340.0 L 74.3,340.0 L 74.4,340.0 L 74.4,340.0 L 74.4,340.0 L 74.4,340.0 L 74.4,340.0 L 74.4,340.0 L 74.4,340.0 L 74.4,340.0 L 74.4,340.0 L 74.4,340.0 L 74.4,340.0 L 74.4,340.0 L 74.4,340.0 L 74.5,340.0 L 74.5,340.0 L 74.5,340.0 L 74.5,340.0 L 74.5,340.0 L 74.5,340.0 L 74.5,340.0 L 74.5,340.0 L 74.5,340.0 L 74.5,340.0 L 74.5,340.0 L 74.5,340.0 L 74.6,340.0 L 74.6,340.0 L 74.6,340.0 L 74.6,340.0 L 74.6,340.0 L 74.6,340.0 L 74.6,340.0 L 74.6,340.0 L 74.6,340.0 L 74.6,340.0 L 74.6,340.0 L 74.6,340.0 L 74.6,340.0 L 74.7,340.0 L 74.7,340.0 L 74.7,340.0 L 74.7,340.0 L 74.7,340.0 L 74.7,340.0 L 74.7,340.0 L 74.7,340.0 L 74.7,340.0 L 74.7,340.0 L 74.7,340.0 L 74.7,340.0 L 74.8,340.0 L 74.8,340.0 L 74.8,340.0 L 74.8,340.0 L 74.8,340.0 L 74.8,340.0 L 74.8,340.0 L 74.8,340.0 L 74.8,340.0 L 74.8,340.0 L 74.8,340.0 L 74.8,340.0 L 74.9,340.0 L 74.9,340.0 L 74.9,340.0 L 74.9,340.0 L 74.9,340.0 L 74.9,340.0 L 74.9,340.0 L 74.9,340.0 L 74.9,340.0 L 74.9,340.0 L 74.9,340.0 L 74.9,340.0 L 75.0,340.0 L 75.0,340.0 L 75.0,340.0 L 75.0,340.0 L 75.0,340.0 L 75.0,340.0 L 75.0,340.0 L 75.0,340.0 L 75.0,340.0 L 75.0,340.0 L 75.0,340.0 L 75.1,340.0 L 75.1,340.0 L 75.1,340.0 L 75.1,340.0 L 75.1,340.0 L 75.1,340.0 L 75.1,340.0 L 75.1,340.0 L 75.1,340.0 L 75.1,340.0 L 75.1,340.0 L 75.2,340.0 L 75.2,340.0 L 75.2,340.0 L 75.2,340.0 L 75.2,340.0 L 75.2,340.0 L 75.2,340.0 L 75.2,340.0 L 75.2,340.0 L 75.2,340.0 L 75.2,340.0 L 75.3,340.0 L 75.3,340.0 L 75.3,340.0 L 75.3,340.0 L 75.3,340.0 L 75.3,340.0 L 75.3,340.0 L 75.3,340.0 L 75.3,340.0 L 75.3,340.0 L 75.3,340.0 L 75.4,340.0 L 75.4,340.0 L 75.4,340.0 L 75.4,340.0 L 75.4,340.0 L 75.4,340.0 L 75.4,340.0 L 75.4,340.0 L 75.4,340.0 L 75.4,340.0 L 75.4,340.0 L 75.5,340.0 L 75.5,340.0 L 75.5,340.0 L 75.5,340.0 L 75.5,340.0 L 75.5,340.0 L 75.5,340.0 L 75.5,340.0 L 75.5,340.0 L 75.5,340.0 L 75.6,340.0 L 75.6,340.0 L 75.6,340.0 L 75.6,340.0 L 75.6,340.0 L 75.6,340.0 L 75.6,340.0 L 75.6,340.0 L 75.6,340.0 L 75.6,340.0 L 75.7,340.0 L 75.7,340.0 L 75.7,340.0 L 75.7,340.0 L 75.7,340.0 L 75.7,340.0 L 75.7,340.0 L 75.7,340.0 L 75.7,340.0 L 75.7,340.0 L 75.8,340.0 L 75.8,340.0 L 75.8,340.0 L 75.8,340.0 L 75.8,340.0 L 75.8,340.0 L 75.8,340.0 L 75.8,340.0 L 75.8,340.0 L 75.8,340.0 L 75.9,340.0 L 75.9,340.0 L 75.9,340.0 L 75.9,340.0 L 75.9,340.0 L 75.9,340.0 L 75.9,340.0 L 75.9,340.0 L 75.9,340.0 L 75.9,340.0 L 76.0,340.0 L 76.0,340.0 L 76.0,340.0 L 76.0,340.0 L 76.0,340.0 L 76.0,340.0 L 76.0,340.0 L 76.0,340.0 L 76.0,340.0 L 76.1,340.0 L 76.1,340.0 L 76.1,340.0 L 76.1,340.0 L 76.1,340.0 L 76.1,340.0 L 76.1,340.0 L 76.1,340.0 L 76.1,340.0 L 76.1,340.0 L 76.2,340.0 L 76.2,340.0 L 76.2,340.0 L 76.2,340.0 L 76.2,340.0 L 76.2,340.0 L 76.2,340.0 L 76.2,340.0 L 76.2,340.0 L 76.3,340.0 L 76.3,340.0 L 76.3,340.0 L 76.3,340.0 L 76.3,340.0 L 76.3,340.0 L 76.3,340.0 L 76.3,340.0 L 76.3,340.0 L 76.4,340.0 L 76.4,340.0 L 76.4,340.0 L 76.4,340.0 L 76.4,340.0 L 76.4,340.0 L 76.4,340.0 L 76.4,340.0 L 76.4,340.0 L 76.5,340.0 L 76.5,340.0 L 76.5,340.0 L 76.5,340.0 L 76.5,340.0 L 76.5,340.0 L 76.5,340.0 L 76.5,340.0 L 76.5,340.0 L 76.6,340.0 L 76.6,340.0 L 76.6,340.0 L 76.6,340.0 L 76.6,340.0 L 76.6,340.0 L 76.6,340.0 L 76.6,340.0 L 76.7,340.0 L 76.7,340.0 L 76.7,340.0 L 76.7,340.0 L 76.7,340.0 L 76.7,340.0 L 76.7,340.0 L 76.7,340.0 L 76.7,340.0 L 76.8,340.0 L 76.8,340.0 L 76.8,340.0 L 76.8,340.0 L 76.8,340.0 L 76.8,340.0 L 76.8,340.0 L 76.8,340.0 L 76.9,340.0 L 76.9,340.0 L 76.9,340.0 L 76.9,340.0 L 76.9,340.0 L 76.9,340.0 L 76.9,340.0 L 76.9,340.0 L 77.0,340.0 L 77.0,340.0 L 77.0,340.0 L 77.0,340.0 L 77.0,340.0 L 77.0,340.0 L 77.0,340.0 L 77.0,340.0 L 77.0,340.0 L 77.1,340.0 L 77.1,340.0 L 77.1,340.0 L 77.1,340.0 L 77.1,340.0 L 77.1,340.0 L 77.1,340.0 L 77.1,340.0 L 77.2,340.0 L 77.2,340.0 L 77.2,340.0 L 77.2,340.0 L 77.2,340.0 L 77.2,340.0 L 77.2,340.0 L 77.2,340.0 L 77.3,340.0 L 77.3,340.0 L 77.3,340.0 L 77.3,340.0 L 77.3,340.0 L 77.3,340.0 L 77.3,340.0 L 77.4,340.0 L 77.4,340.0 L 77.4,340.0 L 77.4,340.0 L 77.4,340.0 L 77.4,340.0 L 77.4,340.0 L 77.4,340.0 L 77.5,340.0 L 77.5,340.0 L 77.5,340.0 L 77.5,340.0 L 77.5,340.0 L 77.5,340.0 L 77.5,340.0 L 77.5,340.0 L 77.6,340.0 L 77.6,340.0 L 77.6,340.0 L 77.6,340.0 L 77.6,340.0 L 77.6,340.0 L 77.6,340.0 L 77.7,340.0 L 77.7,340.0 L 77.7,340.0 L 77.7,340.0 L 77.7,340.0 L 77.7,340.0 L 77.7,340.0 L 77.7,340.0 L 77.8,340.0 L 77.8,340.0 L 77.8,340.0 L 77.8,340.0 L 77.8,340.0 L 77.8,340.0 L 77.8,340.0 L 77.9,340.0 L 77.9,340.0 L 77.9,340.0 L 77.9,340.0 L 77.9,340.0 L 77.9,340.0 L 77.9,340.0 L 78.0,340.0 L 78.0,340.0 L 78.0,340.0 L 78.0,340.0 L 78.0,340.0 L 78.0,340.0 L 78.0,340.0 L 78.1,340.0 L 78.1,340.0 L 78.1,340.0 L 78.1,340.0 L 78.1,340.0 L 78.1,340.0 L 78.1,340.0 L 78.2,340.0 L 78.2,340.0 L 78.2,340.0 L 78.2,340.0 L 78.2,340.0 L 78.2,340.0 L 78.2,340.0 L 78.3,340.0 L 78.3,340.0 L 78.3,340.0 L 78.3,340.0 L 78.3,340.0 L 78.3,340.0 L 78.3,340.0 L 78.4,340.0 L 78.4,340.0 L 78.4,340.0 L 78.4,340.0 L 78.4,340.0 L 78.4,340.0 L 78.4,340.0 L 78.5,340.0 L 78.5,340.0 L 78.5,340.0 L 78.5,340.0 L 78.5,340.0 L 78.5,340.0 L 78.5,340.0 L 78.6,340.0 L 78.6,340.0 L 78.6,340.0 L 78.6,340.0 L 78.6,340.0 L 78.6,340.0 L 78.7,340.0 L 78.7,340.0 L 78.7,340.0 L 78.7,340.0 L 78.7,340.0 L 78.7,340.0 L 78.7,340.0 L 78.8,340.0 L 78.8,340.0 L 78.8,340.0 L 78.8,340.0 L 78.8,340.0 L 78.8,340.0 L 78.8,340.0 L 78.9,340.0 L 78.9,340.0 L 78.9,340.0 L 78.9,340.0 L 78.9,340.0 L 78.9,340.0 L 79.0,340.0 L 79.0,340.0 L 79.0,340.0 L 79.0,340.0 L 79.0,340.0 L 79.0,340.0 L 79.1,340.0 L 79.1,340.0 L 79.1,340.0 L 79.1,340.0 L 79.1,340.0 L 79.1,340.0 L 79.1,340.0 L 79.2,340.0 L 79.2,340.0 L 79.2,340.0 L 79.2,340.0 L 79.2,340.0 L 79.2,340.0 L 79.3,340.0 L 79.3,340.0 L 79.3,340.0 L 79.3,340.0 L 79.3,340.0 L 79.3,340.0 L 79.4,340.0 L 79.4,340.0 L 79.4,340.0 L 79.4,340.0 L 79.4,340.0 L 79.4,340.0 L 79.5,340.0 L 79.5,340.0 L 79.5,340.0 L 79.5,340.0 L 79.5,340.0 L 79.5,340.0 L 79.6,340.0 L 79.6,340.0 L 79.6,340.0 L 79.6,340.0 L 79.6,340.0 L 79.6,340.0 L 79.7,340.0 L 79.7,340.0 L 79.7,340.0 L 79.7,340.0 L 79.7,340.0 L 79.7,340.0 L 79.8,340.0 L 79.8,340.0 L 79.8,340.0 L 79.8,340.0 L 79.8,340.0 L 79.8,340.0 L 79.9,340.0 L 79.9,340.0 L 79.9,340.0 L 79.9,340.0 L 79.9,340.0 L 79.9,340.0 L 80.0,340.0 L 80.0,340.0 L 80.0,340.0 L 80.0,340.0 L 80.0,340.0 L 80.1,340.0 L 80.1,340.0 L 80.1,340.0 L 80.1,340.0 L 80.1,340.0 L 80.1,340.0 L 80.2,340.0 L 80.2,340.0 L 80.2,340.0 L 80.2,340.0 L 80.2,340.0 L 80.3,340.0 L 80.3,340.0 L 80.3,340.0 L 80.3,340.0 L 80.3,340.0 L 80.3,340.0 L 80.4,340.0 L 80.4,340.0 L 80.4,340.0 L 80.4,340.0 L 80.4,340.0 L 80.4,340.0 L 80.5,340.0 L 80.5,340.0 L 80.5,340.0 L 80.5,340.0 L 80.5,340.0 L 80.6,340.0 L 80.6,340.0 L 80.6,340.0 L 80.6,340.0 L 80.6,340.0 L 80.7,340.0 L 80.7,340.0 L 80.7,340.0 L 80.7,340.0 L 80.7,340.0 L 80.7,340.0 L 80.8,340.0 L 80.8,340.0 L 80.8,340.0 L 80.8,340.0 L 80.8,340.0 L 80.9,340.0 L 80.9,340.0 L 80.9,340.0 L 80.9,340.0 L 80.9,340.0 L 81.0,340.0 L 81.0,340.0 L 81.0,340.0 L 81.0,340.0 L 81.0,340.0 L 81.1,340.0 L 81.1,340.0 L 81.1,340.0 L 81.1,340.0 L 81.1,340.0 L 81.1,340.0 L 81.2,340.0 L 81.2,340.0 L 81.2,340.0 L 81.2,340.0 L 81.2,340.0 L 81.3,340.0 L 81.3,340.0 L 81.3,340.0 L 81.3,340.0 L 81.3,340.0 L 81.4,340.0 L 81.4,340.0 L 81.4,340.0 L 81.4,340.0 L 81.4,340.0 L 81.5,340.0 L 81.5,340.0 L 81.5,340.0 L 81.5,340.0 L 81.5,340.0 L 81.6,340.0 L 81.6,340.0 L 81.6,340.0 L 81.6,340.0 L 81.6,340.0 L 81.7,340.0 L 81.7,340.0 L 81.7,340.0 L 81.7,340.0 L 81.7,340.0 L 81.8,340.0 L 81.8,340.0 L 81.8,340.0 L 81.8,340.0 L 81.9,340.0 L 81.9,340.0 L 81.9,340.0 L 81.9,340.0 L 81.9,340.0 L 82.0,340.0 L 82.0,340.0 L 82.0,340.0 L 82.0,340.0 L 82.0,340.0 L 82.1,340.0 L 82.1,340.0 L 82.1,340.0 L 82.1,340.0 L 82.1,340.0 L 82.2,340.0 L 82.2,340.0 L 82.2,340.0 L 82.2,340.0 L 82.3,340.0 L 82.3,340.0 L 82.3,340.0 L 82.3,340.0 L 82.3,340.0 L 82.4,340.0 L 82.4,340.0 L 82.4,340.0 L 82.4,340.0 L 82.4,340.0 L 82.5,340.0 L 82.5,340.0 L 82.5,340.0 L 82.5,340.0 L 82.6,340.0 L 82.6,340.0 L 82.6,340.0 L 82.6,340.0 L 82.6,340.0 L 82.7,340.0 L 82.7,340.0 L 82.7,340.0 L 82.7,340.0 L 82.8,340.0 L 82.8,340.0 L 82.8,340.0 L 82.8,340.0 L 82.8,340.0 L 82.9,340.0 L 82.9,340.0 L 82.9,340.0 L 82.9,340.0 L 83.0,340.0 L 83.0,340.0 L 83.0,340.0 L 83.0,340.0 L 83.1,340.0 L 83.1,340.0 L 83.1,340.0 L 83.1,340.0 L 83.1,340.0 L 83.2,340.0 L 83.2,340.0 L 83.2,340.0 L 83.2,340.0 L 83.3,340.0 L 83.3,340.0 L 83.3,340.0 L 83.3,340.0 L 83.4,340.0 L 83.4,340.0 L 83.4,340.0 L 83.4,340.0 L 83.4,340.0 L 83.5,340.0 L 83.5,340.0 L 83.5,340.0 L 83.5,340.0 L 83.6,340.0 L 83.6,340.0 L 83.6,340.0 L 83.6,340.0 L 83.7,340.0 L 83.7,340.0 L 83.7,340.0 L 83.7,340.0 L 83.8,340.0 L 83.8,340.0 L 83.8,340.0 L 83.8,340.0 L 83.9,340.0 L 83.9,340.0 L 83.9,340.0 L 83.9,340.0 L 83.9,340.0 L 84.0,340.0 L 84.0,340.0 L 84.0,340.0 L 84.0,340.0 L 84.1,340.0 L 84.1,340.0 L 84.1,340.0 L 84.1,340.0 L 84.2,340.0 L 84.2,340.0 L 84.2,340.0 L 84.2,340.0 L 84.3,340.0 L 84.3,340.0 L 84.3,340.0 L 84.3,340.0 L 84.4,340.0 L 84.4,340.0 L 84.4,340.0 L 84.4,340.0 L 84.5,340.0 L 84.5,340.0 L 84.5,340.0 L 84.5,340.0 L 84.6,340.0 L 84.6,340.0 L 84.6,340.0 L 84.6,340.0 L 84.7,340.0 L 84.7,340.0 L 84.7,340.0 L 84.8,340.0 L 84.8,340.0 L 84.8,340.0 L 84.8,340.0 L 84.9,340.0 L 84.9,340.0 L 84.9,340.0 L 84.9,340.0 L 85.0,340.0 L 85.0,340.0 L 85.0,340.0 L 85.0,340.0 L 85.1,340.0 L 85.1,340.0 L 85.1,340.0 L 85.1,340.0 L 85.2,340.0 L 85.2,340.0 L 85.2,340.0 L 85.2,340.0 L 85.3,340.0 L 85.3,340.0 L 85.3,340.0 L 85.4,340.0 L 85.4,340.0 L 85.4,340.0 L 85.4,340.0 L 85.5,340.0 L 85.5,340.0 L 85.5,340.0 L 85.5,340.0 L 85.6,340.0 L 85.6,340.0 L 85.6,340.0 L 85.7,340.0 L 85.7,340.0 L 85.7,340.0 L 85.7,340.0 L 85.8,340.0 L 85.8,340.0 L 85.8,340.0 L 85.8,340.0 L 85.9,340.0 L 85.9,340.0 L 85.9,340.0 L 86.0,340.0 L 86.0,340.0 L 86.0,340.0 L 86.0,340.0 L 86.1,340.0 L 86.1,340.0 L 86.1,340.0 L 86.2,340.0 L 86.2,340.0 L 86.2,340.0 L 86.2,340.0 L 86.3,340.0 L 86.3,340.0 L 86.3,340.0 L 86.4,340.0 L 86.4,340.0 L 86.4,340.0 L 86.4,340.0 L 86.5,340.0 L 86.5,340.0 L 86.5,340.0 L 86.6,340.0 L 86.6,340.0 L 86.6,340.0 L 86.6,340.0 L 86.7,340.0 L 86.7,340.0 L 86.7,340.0 L 86.8,340.0 L 86.8,340.0 L 86.8,340.0 L 86.8,340.0 L 86.9,340.0 L 86.9,340.0 L 86.9,340.0 L 87.0,340.0 L 87.0,340.0 L 87.0,340.0 L 87.1,340.0 L 87.1,340.0 L 87.1,340.0 L 87.1,340.0 L 87.2,340.0 L 87.2,340.0 L 87.2,340.0 L 87.3,340.0 L 87.3,340.0 L 87.3,340.0 L 87.4,340.0 L 87.4,340.0 L 87.4,340.0 L 87.4,340.0 L 87.5,340.0 L 87.5,340.0 L 87.5,340.0 L 87.6,340.0 L 87.6,340.0 L 87.6,340.0 L 87.7,340.0 L 87.7,340.0 L 87.7,340.0 L 87.8,340.0 L 87.8,340.0 L 87.8,340.0 L 87.9,340.0 L 87.9,340.0 L 87.9,340.0 L 87.9,340.0 L 88.0,340.0 L 88.0,340.0 L 88.0,340.0 L 88.1,340.0 L 88.1,340.0 L 88.1,340.0 L 88.2,340.0 L 88.2,340.0 L 88.2,340.0 L 88.3,340.0 L 88.3,340.0 L 88.3,340.0 L 88.4,340.0 L 88.4,340.0 L 88.4,340.0 L 88.5,340.0 L 88.5,340.0 L 88.5,340.0 L 88.6,340.0 L 88.6,340.0 L 88.6,340.0 L 88.6,340.0 L 88.7,340.0 L 88.7,340.0 L 88.7,340.0 L 88.8,340.0 L 88.8,340.0 L 88.8,340.0 L 88.9,340.0 L 88.9,340.0 L 88.9,340.0 L 89.0,340.0 L 89.0,340.0 L 89.0,340.0 L 89.1,340.0 L 89.1,340.0 L 89.1,340.0 L 89.2,340.0 L 89.2,340.0 L 89.2,340.0 L 89.3,340.0 L 89.3,340.0 L 89.3,340.0 L 89.4,340.0 L 89.4,340.0 L 89.4,340.0 L 89.5,340.0 L 89.5,340.0 L 89.6,340.0 L 89.6,340.0 L 89.6,340.0 L 89.7,340.0 L 89.7,340.0 L 89.7,340.0 L 89.8,340.0 L 89.8,340.0 L 89.8,340.0 L 89.9,340.0 L 89.9,340.0 L 89.9,340.0 L 90.0,340.0 L 90.0,340.0 L 90.0,340.0 L 90.1,340.0 L 90.1,340.0 L 90.1,340.0 L 90.2,340.0 L 90.2,340.0 L 90.2,340.0 L 90.3,340.0 L 90.3,340.0 L 90.4,340.0 L 90.4,340.0 L 90.4,340.0 L 90.5,340.0 L 90.5,340.0 L 90.5,340.0 L 90.6,340.0 L 90.6,340.0 L 90.6,340.0 L 90.7,340.0 L 90.7,340.0 L 90.8,340.0 L 90.8,340.0 L 90.8,340.0 L 90.9,340.0 L 90.9,340.0 L 90.9,340.0 L 91.0,340.0 L 91.0,340.0 L 91.0,340.0 L 91.1,340.0 L 91.1,340.0 L 91.2,340.0 L 91.2,340.0 L 91.2,340.0 L 91.3,340.0 L 91.3,340.0 L 91.3,340.0 L 91.4,340.0 L 91.4,340.0 L 91.5,340.0 L 91.5,340.0 L 91.5,340.0 L 91.6,340.0 L 91.6,340.0 L 91.6,340.0 L 91.7,340.0 L 91.7,340.0 L 91.8,340.0 L 91.8,340.0 L 91.8,340.0 L 91.9,340.0 L 91.9,340.0 L 91.9,340.0 L 92.0,340.0 L 92.0,340.0 L 92.1,340.0 L 92.1,340.0 L 92.1,340.0 L 92.2,340.0 L 92.2,340.0 L 92.3,340.0 L 92.3,340.0 L 92.3,340.0 L 92.4,340.0 L 92.4,340.0 L 92.5,340.0 L 92.5,340.0 L 92.5,340.0 L 92.6,340.0 L 92.6,340.0 L 92.6,340.0 L 92.7,340.0 L 92.7,340.0 L 92.8,340.0 L 92.8,340.0 L 92.8,340.0 L 92.9,340.0 L 92.9,340.0 L 93.0,340.0 L 93.0,340.0 L 93.0,340.0 L 93.1,340.0 L 93.1,340.0 L 93.2,340.0 L 93.2,340.0 L 93.3,340.0 L 93.3,340.0 L 93.3,340.0 L 93.4,340.0 L 93.4,340.0 L 93.5,340.0 L 93.5,340.0 L 93.5,340.0 L 93.6,340.0 L 93.6,340.0 L 93.7,340.0 L 93.7,340.0 L 93.7,340.0 L 93.8,340.0 L 93.8,340.0 L 93.9,340.0 L 93.9,340.0 L 94.0,340.0 L 94.0,340.0 L 94.0,340.0 L 94.1,340.0 L 94.1,340.0 L 94.2,340.0 L 94.2,340.0 L 94.2,340.0 L 94.3,340.0 L 94.3,340.0 L 94.4,340.0 L 94.4,340.0 L 94.5,340.0 L 94.5,340.0 L 94.5,340.0 L 94.6,340.0 L 94.6,340.0 L 94.7,340.0 L 94.7,340.0 L 94.8,340.0 L 94.8,340.0 L 94.8,340.0 L 94.9,340.0 L 94.9,340.0 L 95.0,340.0 L 95.0,340.0 L 95.1,340.0 L 95.1,340.0 L 95.2,340.0 L 95.2,340.0 L 95.2,340.0 L 95.3,340.0 L 95.3,340.0 L 95.4,340.0 L 95.4,340.0 L 95.5,340.0 L 95.5,340.0 L 95.6,340.0 L 95.6,340.0 L 95.6,340.0 L 95.7,340.0 L 95.7,340.0 L 95.8,340.0 L 95.8,340.0 L 95.9,340.0 L 95.9,340.0 L 96.0,340.0 L 96.0,340.0 L 96.1,340.0 L 96.1,340.0 L 96.1,340.0 L 96.2,340.0 L 96.2,340.0 L 96.3,340.0 L 96.3,340.0 L 96.4,340.0 L 96.4,340.0 L 96.5,340.0 L 96.5,340.0 L 96.6,340.0 L 96.6,340.0 L 96.7,340.0 L 96.7,340.0 L 96.7,340.0 L 96.8,340.0 L 96.8,340.0 L 96.9,340.0 L 96.9,340.0 L 97.0,340.0 L 97.0,340.0 L 97.1,340.0 L 97.1,340.0 L 97.2,340.0 L 97.2,340.0 L 97.3,340.0 L 97.3,340.0 L 97.4,340.0 L 97.4,340.0 L 97.5,340.0 L 97.5,340.0 L 97.6,340.0 L 97.6,340.0 L 97.6,340.0 L 97.7,340.0 L 97.7,340.0 L 97.8,340.0 L 97.8,340.0 L 97.9,340.0 L 97.9,340.0 L 98.0,340.0 L 98.0,340.0 L 98.1,340.0 L 98.1,340.0 L 98.2,340.0 L 98.2,340.0 L 98.3,340.0 L 98.3,340.0 L 98.4,340.0 L 98.4,340.0 L 98.5,340.0 L 98.5,340.0 L 98.6,340.0 L 98.6,340.0 L 98.7,340.0 L 98.7,340.0 L 98.8,340.0 L 98.8,340.0 L 98.9,340.0 L 98.9,340.0 L 99.0,340.0 L 99.0,340.0 L 99.1,340.0 L 99.1,340.0 L 99.2,340.0 L 99.2,340.0 L 99.3,340.0 L 99.3,340.0 L 99.4,340.0 L 99.4,340.0 L 99.5,340.0 L 99.5,340.0 L 99.6,340.0 L 99.7,340.0 L 99.7,340.0 L 99.8,340.0 L 99.8,340.0 L 99.9,340.0 L 99.9,340.0 L 100.0,340.0 L 100.0,340.0 L 100.1,340.0 L 100.1,340.0 L 100.2,340.0 L 100.2,340.0 L 100.3,340.0 L 100.3,340.0 L 100.4,340.0 L 100.4,340.0 L 100.5,340.0 L 100.5,340.0 L 100.6,340.0 L 100.7,340.0 L 100.7,340.0 L 100.8,340.0 L 100.8,340.0 L 100.9,340.0 L 100.9,340.0 L 101.0,340.0 L 101.0,340.0 L 101.1,340.0 L 101.1,340.0 L 101.2,340.0 L 101.3,340.0 L 101.3,340.0 L 101.4,340.0 L 101.4,340.0 L 101.5,340.0 L 101.5,340.0 L 101.6,340.0 L 101.6,340.0 L 101.7,340.0 L 101.7,340.0 L 101.8,340.0 L 101.9,340.0 L 101.9,340.0 L 102.0,340.0 L 102.0,340.0 L 102.1,340.0 L 102.1,340.0 L 102.2,340.0 L 102.3,340.0 L 102.3,340.0 L 102.4,340.0 L 102.4,340.0 L 102.5,340.0 L 102.5,340.0 L 102.6,340.0 L 102.6,340.0 L 102.7,340.0 L 102.8,340.0 L 102.8,340.0 L 102.9,340.0 L 102.9,340.0 L 103.0,340.0 L 103.1,340.0 L 103.1,340.0 L 103.2,340.0 L 103.2,340.0 L 103.3,340.0 L 103.3,340.0 L 103.4,340.0 L 103.5,340.0 L 103.5,340.0 L 103.6,340.0 L 103.6,340.0 L 103.7,340.0 L 103.8,340.0 L 103.8,340.0 L 103.9,340.0 L 103.9,340.0 L 104.0,340.0 L 104.0,340.0 L 104.1,340.0 L 104.2,340.0 L 104.2,340.0 L 104.3,340.0 L 104.3,340.0 L 104.4,340.0 L 104.5,340.0 L 104.5,340.0 L 104.6,340.0 L 104.7,340.0 L 104.7,340.0 L 104.8,340.0 L 104.8,340.0 L 104.9,340.0 L 105.0,340.0 L 105.0,340.0 L 105.1,340.0 L 105.1,340.0 L 105.2,340.0 L 105.3,340.0 L 105.3,340.0 L 105.4,340.0 L 105.4,340.0 L 105.5,340.0 L 105.6,340.0 L 105.6,340.0 L 105.7,340.0 L 105.8,340.0 L 105.8,340.0 L 105.9,340.0 L 105.9,340.0 L 106.0,340.0 L 106.1,340.0 L 106.1,340.0 L 106.2,340.0 L 106.3,340.0 L 106.3,340.0 L 106.4,340.0 L 106.5,340.0 L 106.5,340.0 L 106.6,340.0 L 106.6,340.0 L 106.7,340.0 L 106.8,340.0 L 106.8,340.0 L 106.9,340.0 L 107.0,340.0 L 107.0,340.0 L 107.1,340.0 L 107.2,340.0 L 107.2,340.0 L 107.3,340.0 L 107.4,340.0 L 107.4,340.0 L 107.5,340.0 L 107.6,340.0 L 107.6,340.0 L 107.7,340.0 L 107.8,340.0 L 107.8,340.0 L 107.9,340.0 L 108.0,340.0 L 108.0,340.0 L 108.1,340.0 L 108.2,340.0 L 108.2,340.0 L 108.3,340.0 L 108.4,340.0 L 108.4,340.0 L 108.5,340.0 L 108.6,340.0 L 108.6,340.0 L 108.7,340.0 L 108.8,340.0 L 108.8,340.0 L 108.9,340.0 L 109.0,340.0 L 109.0,340.0 L 109.1,340.0 L 109.2,340.0 L 109.2,340.0 L 109.3,340.0 L 109.4,340.0 L 109.4,340.0 L 109.5,340.0 L 109.6,340.0 L 109.6,340.0 L 109.7,340.0 L 109.8,340.0 L 109.9,340.0 L 109.9,340.0 L 110.0,340.0 L 110.1,340.0 L 110.1,340.0 L 110.2,340.0 L 110.3,340.0 L 110.3,340.0 L 110.4,340.0 L 110.5,340.0 L 110.6,340.0 L 110.6,340.0 L 110.7,340.0 L 110.8,340.0 L 110.8,340.0 L 110.9,340.0 L 111.0,340.0 L 111.1,340.0 L 111.1,340.0 L 111.2,340.0 L 111.3,340.0 L 111.3,340.0 L 111.4,340.0 L 111.5,340.0 L 111.6,340.0 L 111.6,340.0 L 111.7,340.0 L 111.8,340.0 L 111.9,340.0 L 111.9,340.0 L 112.0,340.0 L 112.1,340.0 L 112.2,340.0 L 112.2,340.0 L 112.3,340.0 L 112.4,340.0 L 112.4,340.0 L 112.5,340.0 L 112.6,340.0 L 112.7,340.0 L 112.7,340.0 L 112.8,340.0 L 112.9,340.0 L 113.0,340.0 L 113.0,340.0 L 113.1,340.0 L 113.2,340.0 L 113.3,340.0 L 113.4,340.0 L 113.4,340.0 L 113.5,340.0 L 113.6,340.0 L 113.7,340.0 L 113.7,340.0 L 113.8,340.0 L 113.9,340.0 L 114.0,340.0 L 114.0,340.0 L 114.1,340.0 L 114.2,340.0 L 114.3,340.0 L 114.3,340.0 L 114.4,340.0 L 114.5,340.0 L 114.6,340.0 L 114.7,340.0 L 114.7,340.0 L 114.8,340.0 L 114.9,340.0 L 115.0,340.0 L 115.1,340.0 L 115.1,340.0 L 115.2,340.0 L 115.3,340.0 L 115.4,340.0 L 115.4,340.0 L 115.5,340.0 L 115.6,340.0 L 115.7,340.0 L 115.8,340.0 L 115.8,340.0 L 115.9,340.0 L 116.0,340.0 L 116.1,340.0 L 116.2,340.0 L 116.3,340.0 L 116.3,340.0 L 116.4,340.0 L 116.5,340.0 L 116.6,340.0 L 116.7,340.0 L 116.7,340.0 L 116.8,340.0 L 116.9,340.0 L 117.0,340.0 L 117.1,340.0 L 117.1,340.0 L 117.2,340.0 L 117.3,340.0 L 117.4,340.0 L 117.5,340.0 L 117.6,340.0 L 117.6,340.0 L 117.7,340.0 L 117.8,340.0 L 117.9,340.0 L 118.0,340.0 L 118.1,340.0 L 118.1,340.0 L 118.2,340.0 L 118.3,340.0 L 118.4,340.0 L 118.5,340.0 L 118.6,340.0 L 118.7,340.0 L 118.7,340.0 L 118.8,340.0 L 118.9,340.0 L 119.0,340.0 L 119.1,340.0 L 119.2,340.0 L 119.3,340.0 L 119.3,340.0 L 119.4,340.0 L 119.5,340.0 L 119.6,340.0 L 119.7,340.0 L 119.8,340.0 L 119.9,340.0 L 120.0,340.0 L 120.0,340.0 L 120.1,340.0 L 120.2,340.0 L 120.3,340.0 L 120.4,340.0 L 120.5,340.0 L 120.6,340.0 L 120.7,340.0 L 120.7,340.0 L 120.8,340.0 L 120.9,340.0 L 121.0,340.0 L 121.1,340.0 L 121.2,340.0 L 121.3,340.0 L 121.4,340.0 L 121.5,340.0 L 121.6,340.0 L 121.6,340.0 L 121.7,340.0 L 121.8,340.0 L 121.9,340.0 L 122.0,340.0 L 122.1,340.0 L 122.2,340.0 L 122.3,340.0 L 122.4,340.0 L 122.5,340.0 L 122.6,340.0 L 122.6,340.0 L 122.7,340.0 L 122.8,340.0 L 122.9,340.0 L 123.0,340.0 L 123.1,340.0 L 123.2,340.0 L 123.3,340.0 L 123.4,340.0 L 123.5,340.0 L 123.6,340.0 L 123.7,340.0 L 123.8,340.0 L 123.9,340.0 L 124.0,340.0 L 124.0,340.0 L 124.1,340.0 L 124.2,340.0 L 124.3,340.0 L 124.4,340.0 L 124.5,340.0 L 124.6,340.0 L 124.7,340.0 L 124.8,340.0 L 124.9,340.0 L 125.0,340.0 L 125.1,340.0 L 125.2,340.0 L 125.3,340.0 L 125.4,340.0 L 125.5,340.0 L 125.6,340.0 L 125.7,340.0 L 125.8,340.0 L 125.9,340.0 L 126.0,340.0 L 126.1,340.0 L 126.2,340.0 L 126.3,340.0 L 126.4,340.0 L 126.5,340.0 L 126.6,340.0 L 126.7,340.0 L 126.8,340.0 L 126.9,340.0 L 127.0,340.0 L 127.1,340.0 L 127.2,340.0 L 127.3,340.0 L 127.4,340.0 L 127.5,340.0 L 127.6,340.0 L 127.7,340.0 L 127.8,340.0 L 127.9,340.0 L 128.0,340.0 L 128.1,340.0 L 128.2,340.0 L 128.3,340.0 L 128.4,340.0 L 128.5,340.0 L 128.6,340.0 L 128.7,340.0 L 128.8,340.0 L 128.9,340.0 L 129.0,340.0 L 129.1,340.0 L 129.2,340.0 L 129.3,340.0 L 129.4,340.0 L 129.5,340.0 L 129.6,340.0 L 129.7,340.0 L 129.8,340.0 L 129.9,340.0 L 130.0,340.0 L 130.1,340.0 L 130.2,340.0 L 130.3,340.0 L 130.4,340.0 L 130.6,340.0 L 130.7,340.0 L 130.8,340.0 L 130.9,340.0 L 131.0,340.0 L 131.1,340.0 L 131.2,340.0 L 131.3,340.0 L 131.4,340.0 L 131.5,340.0 L 131.6,340.0 L 131.7,340.0 L 131.8,340.0 L 131.9,340.0 L 132.1,340.0 L 132.2,340.0 L 132.3,340.0 L 132.4,340.0 L 132.5,340.0 L 132.6,340.0 L 132.7,340.0 L 132.8,340.0 L 132.9,340.0 L 133.0,340.0 L 133.2,340.0 L 133.3,340.0 L 133.4,340.0 L 133.5,340.0 L 133.6,340.0 L 133.7,340.0 L 133.8,340.0 L 133.9,340.0 L 134.0,340.0 L 134.2,340.0 L 134.3,340.0 L 134.4,340.0 L 134.5,340.0 L 134.6,340.0 L 134.7,340.0 L 134.8,340.0 L 134.9,340.0 L 135.1,340.0 L 135.2,340.0 L 135.3,340.0 L 135.4,340.0 L 135.5,340.0 L 135.6,340.0 L 135.7,340.0 L 135.9,340.0 L 136.0,340.0 L 136.1,340.0 L 136.2,340.0 L 136.3,340.0 L 136.4,340.0 L 136.6,340.0 L 136.7,340.0 L 136.8,340.0 L 136.9,340.0 L 137.0,340.0 L 137.1,340.0 L 137.3,340.0 L 137.4,340.0 L 137.5,340.0 L 137.6,340.0 L 137.7,340.0 L 137.9,340.0 L 138.0,340.0 L 138.1,340.0 L 138.2,340.0 L 138.3,340.0 L 138.4,340.0 L 138.6,340.0 L 138.7,340.0 L 138.8,340.0 L 138.9,340.0 L 139.0,340.0 L 139.2,340.0 L 139.3,340.0 L 139.4,340.0 L 139.5,340.0 L 139.7,340.0 L 139.8,340.0 L 139.9,340.0 L 140.0,340.0 L 140.1,340.0 L 140.3,340.0 L 140.4,340.0 L 140.5,340.0 L 140.6,340.0 L 140.8,340.0 L 140.9,340.0 L 141.0,340.0 L 141.1,340.0 L 141.3,340.0 L 141.4,340.0 L 141.5,340.0 L 141.6,340.0 L 141.8,340.0 L 141.9,340.0 L 142.0,340.0 L 142.1,340.0 L 142.3,340.0 L 142.4,340.0 L 142.5,340.0 L 142.6,340.0 L 142.8,340.0 L 142.9,340.0 L 143.0,340.0 L 143.2,340.0 L 143.3,340.0 L 143.4,340.0 L 143.5,340.0 L 143.7,340.0 L 143.8,340.0 L 143.9,340.0 L 144.1,340.0 L 144.2,340.0 L 144.3,340.0 L 144.4,340.0 L 144.6,340.0 L 144.7,340.0 L 144.8,340.0 L 145.0,340.0 L 145.1,340.0 L 145.2,340.0 L 145.4,340.0 L 145.5,340.0 L 145.6,340.0 L 145.8,340.0 L 145.9,340.0 L 146.0,340.0 L 146.2,340.0 L 146.3,340.0 L 146.4,340.0 L 146.6,340.0 L 146.7,340.0 L 146.8,340.0 L 147.0,340.0 L 147.1,340.0 L 147.2,340.0 L 147.4,340.0 L 147.5,340.0 L 147.6,340.0 L 147.8,340.0 L 147.9,340.0 L 148.0,340.0 L 148.2,340.0 L 148.3,340.0 L 148.5,340.0 L 148.6,340.0 L 148.7,340.0 L 148.9,340.0 L 149.0,340.0 L 149.1,340.0 L 149.3,340.0 L 149.4,340.0 L 149.6,340.0 L 149.7,340.0 L 149.8,340.0 L 150.0,340.0 L 150.1,340.0 L 150.3,340.0 L 150.4,340.0 L 150.5,340.0 L 150.7,340.0 L 150.8,340.0 L 151.0,340.0 L 151.1,340.0 L 151.3,340.0 L 151.4,340.0 L 151.5,340.0 L 151.7,340.0 L 151.8,340.0 L 152.0,340.0 L 152.1,340.0 L 152.3,340.0 L 152.4,340.0 L 152.5,340.0 L 152.7,340.0 L 152.8,340.0 L 153.0,340.0 L 153.1,340.0 L 153.3,340.0 L 153.4,340.0 L 153.6,340.0 L 153.7,340.0 L 153.9,340.0 L 154.0,340.0 L 154.1,340.0 L 154.3,340.0 L 154.4,340.0 L 154.6,340.0 L 154.7,340.0 L 154.9,340.0 L 155.0,340.0 L 155.2,340.0 L 155.3,340.0 L 155.5,340.0 L 155.6,340.0 L 155.8,340.0 L 155.9,340.0 L 156.1,340.0 L 156.2,340.0 L 156.4,340.0 L 156.5,340.0 L 156.7,340.0 L 156.8,340.0 L 157.0,340.0 L 157.1,340.0 L 157.3,340.0 L 157.4,340.0 L 157.6,340.0 L 157.8,340.0 L 157.9,340.0 L 158.1,340.0 L 158.2,340.0 L 158.4,340.0 L 158.5,340.0 L 158.7,340.0 L 158.8,340.0 L 159.0,340.0 L 159.1,340.0 L 159.3,340.0 L 159.5,340.0 L 159.6,340.0 L 159.8,340.0 L 159.9,340.0 L 160.1,340.0 L 160.2,340.0 L 160.4,340.0 L 160.6,340.0 L 160.7,340.0 L 160.9,340.0 L 161.0,340.0 L 161.2,340.0 L 161.4,340.0 L 161.5,340.0 L 161.7,340.0 L 161.8,340.0 L 162.0,340.0 L 162.2,340.0 L 162.3,340.0 L 162.5,340.0 L 162.6,340.0 L 162.8,340.0 L 163.0,340.0 L 163.1,340.0 L 163.3,340.0 L 163.5,340.0 L 163.6,340.0 L 163.8,340.0 L 164.0,340.0 L 164.1,340.0 L 164.3,340.0 L 164.4,340.0 L 164.6,340.0 L 164.8,340.0 L 164.9,340.0 L 165.1,340.0 L 165.3,340.0 L 165.4,340.0 L 165.6,340.0 L 165.8,340.0 L 165.9,340.0 L 166.1,340.0 L 166.3,340.0 L 166.5,340.0 L 166.6,340.0 L 166.8,340.0 L 167.0,340.0 L 167.1,340.0 L 167.3,340.0 L 167.5,340.0 L 167.6,340.0 L 167.8,340.0 L 168.0,340.0 L 168.2,340.0 L 168.3,340.0 L 168.5,340.0 L 168.7,340.0 L 168.8,340.0 L 169.0,340.0 L 169.2,340.0 L 169.4,340.0 L 169.5,340.0 L 169.7,340.0 L 169.9,340.0 L 170.1,340.0 L 170.2,340.0 L 170.4,340.0 L 170.6,340.0 L 170.8,340.0 L 170.9,340.0 L 171.1,340.0 L 171.3,340.0 L 171.5,340.0 L 171.7,340.0 L 171.8,340.0 L 172.0,340.0 L 172.2,340.0 L 172.4,340.0 L 172.5,340.0 L 172.7,340.0 L 172.9,340.0 L 173.1,340.0 L 173.3,340.0 L 173.4,340.0 L 173.6,340.0 L 173.8,340.0 L 174.0,340.0 L 174.2,340.0 L 174.4,340.0 L 174.5,340.0 L 174.7,340.0 L 174.9,340.0 L 175.1,340.0 L 175.3,340.0 L 175.5,340.0 L 175.6,340.0 L 175.8,340.0 L 176.0,340.0 L 176.2,340.0 L 176.4,340.0 L 176.6,340.0 L 176.8,340.0 L 176.9,340.0 L 177.1,340.0 L 177.3,340.0 L 177.5,340.0 L 177.7,340.0 L 177.9,340.0 L 178.1,340.0 L 178.3,340.0 L 178.5,340.0 L 178.6,340.0 L 178.8,340.0 L 179.0,340.0 L 179.2,340.0 L 179.4,340.0 L 179.6,340.0 L 179.8,340.0 L 180.0,340.0 L 180.2,340.0 L 180.4,340.0 L 180.6,340.0 L 180.8,340.0 L 180.9,340.0 L 181.1,340.0 L 181.3,340.0 L 181.5,340.0 L 181.7,340.0 L 181.9,340.0 L 182.1,340.0 L 182.3,340.0 L 182.5,340.0 L 182.7,340.0 L 182.9,340.0 L 183.1,340.0 L 183.3,340.0 L 183.5,340.0 L 183.7,340.0 L 183.9,340.0 L 184.1,340.0 L 184.3,340.0 L 184.5,340.0 L 184.7,340.0 L 184.9,340.0 L 185.1,340.0 L 185.3,340.0 L 185.5,340.0 L 185.7,340.0 L 185.9,340.0 L 186.1,340.0 L 186.3,340.0 L 186.5,340.0 L 186.7,340.0 L 186.9,340.0 L 187.1,340.0 L 187.3,340.0 L 187.5,340.0 L 187.8,340.0 L 188.0,340.0 L 188.2,340.0 L 188.4,340.0 L 188.6,340.0 L 188.8,340.0 L 189.0,340.0 L 189.2,340.0 L 189.4,340.0 L 189.6,340.0 L 189.8,340.0 L 190.0,340.0 L 190.2,340.0 L 190.5,340.0 L 190.7,340.0 L 190.9,340.0 L 191.1,340.0 L 191.3,340.0 L 191.5,340.0 L 191.7,340.0 L 191.9,340.0 L 192.2,340.0 L 192.4,340.0 L 192.6,340.0 L 192.8,340.0 L 193.0,340.0 L 193.2,340.0 L 193.4,340.0 L 193.7,340.0 L 193.9,340.0 L 194.1,340.0 L 194.3,340.0 L 194.5,340.0 L 194.8,340.0 L 195.0,340.0 L 195.2,340.0 L 195.4,340.0 L 195.6,340.0 L 195.8,340.0 L 196.1,340.0 L 196.3,340.0 L 196.5,340.0 L 196.7,340.0 L 197.0,340.0 L 197.2,340.0 L 197.4,340.0 L 197.6,340.0 L 197.8,340.0 L 198.1,340.0 L 198.3,340.0 L 198.5,340.0 L 198.7,340.0 L 199.0,340.0 L 199.2,340.0 L 199.4,340.0 L 199.6,340.0 L 199.9,340.0 L 200.1,340.0 L 200.3,340.0 L 200.6,340.0 L 200.8,340.0 L 201.0,340.0 L 201.2,340.0 L 201.5,340.0 L 201.7,340.0 L 201.9,340.0 L 202.2,340.0 L 202.4,340.0 L 202.6,340.0 L 202.9,340.0 L 203.1,340.0 L 203.3,340.0 L 203.6,340.0 L 203.8,340.0 L 204.0,340.0 L 204.3,340.0 L 204.5,340.0 L 204.7,340.0 L 205.0,340.0 L 205.2,340.0 L 205.4,340.0 L 205.7,340.0 L 205.9,340.0 L 206.2,340.0 L 206.4,340.0 L 206.6,340.0 L 206.9,340.0 L 207.1,340.0 L 207.4,340.0 L 207.6,340.0 L 207.8,340.0 L 208.1,340.0 L 208.3,340.0 L 208.6,340.0 L 208.8,340.0 L 209.0,340.0 L 209.3,340.0 L 209.5,340.0 L 209.8,340.0 L 210.0,340.0 L 210.3,340.0 L 210.5,340.0 L 210.8,340.0 L 211.0,340.0 L 211.3,340.0 L 211.5,340.0 L 211.7,340.0 L 212.0,340.0 L 212.2,340.0 L 212.5,340.0 L 212.7,340.0 L 213.0,340.0 L 213.2,340.0 L 213.5,340.0 L 213.7,340.0 L 214.0,340.0 L 214.3,340.0 L 214.5,340.0 L 214.8,340.0 L 215.0,340.0 L 215.3,340.0 L 215.5,340.0 L 215.8,340.0 L 216.0,340.0 L 216.3,340.0 L 216.5,340.0 L 216.8,340.0 L 217.1,340.0 L 217.3,340.0 L 217.6,340.0 L 217.8,340.0 L 218.1,340.0 L 218.3,340.0 L 218.6,340.0 L 218.9,340.0 L 219.1,340.0 L 219.4,340.0 L 219.7,340.0 L 219.9,340.0 L 220.2,340.0 L 220.4,340.0 L 220.7,340.0 L 221.0,340.0 L 221.2,340.0 L 221.5,340.0 L 221.8,340.0 L 222.0,340.0 L 222.3,340.0 L 222.6,340.0 L 222.8,340.0 L 223.1,340.0 L 223.4,340.0 L 223.6,340.0 L 223.9,340.0 L 224.2,340.0 L 224.4,340.0 L 224.7,340.0 L 225.0,340.0 L 225.3,340.0 L 225.5,340.0 L 225.8,340.0 L 226.1,340.0 L 226.3,340.0 L 226.6,340.0 L 226.9,340.0 L 227.2,340.0 L 227.4,340.0 L 227.7,340.0 L 228.0,340.0 L 228.3,340.0 L 228.5,340.0 L 228.8,340.0 L 229.1,340.0 L 229.4,340.0 L 229.7,340.0 L 229.9,340.0 L 230.2,340.0 L 230.5,340.0 L 230.8,340.0 L 231.1,340.0 L 231.3,340.0 L 231.6,340.0 L 231.9,340.0 L 232.2,340.0 L 232.5,340.0 L 232.8,340.0 L 233.1,340.0 L 233.3,340.0 L 233.6,340.0 L 233.9,340.0 L 234.2,340.0 L 234.5,340.0 L 234.8,340.0 L 235.1,340.0 L 235.3,340.0 L 235.6,340.0 L 235.9,340.0 L 236.2,340.0 L 236.5,340.0 L 236.8,340.0 L 237.1,340.0 L 237.4,340.0 L 237.7,340.0 L 238.0,340.0 L 238.3,340.0 L 238.6,340.0 L 238.9,340.0 L 239.2,340.0 L 239.5,340.0 L 239.7,340.0 L 240.0,340.0 L 240.3,340.0 L 240.6,340.0 L 240.9,340.0 L 241.2,340.0 L 241.5,340.0 L 241.8,340.0 L 242.1,340.0 L 242.4,340.0 L 242.7,340.0 L 243.0,340.0 L 243.4,340.0 L 243.7,340.0 L 244.0,340.0 L 244.3,340.0 L 244.6,340.0 L 244.9,339.9 L 245.2,339.9 L 245.5,339.9 L 245.8,339.9 L 246.1,339.9 L 246.4,339.9 L 246.7,339.9 L 247.0,339.9 L 247.3,339.9 L 247.6,339.9 L 248.0,339.9 L 248.3,339.9 L 248.6,339.9 L 248.9,339.9 L 249.2,339.9 L 249.5,339.9 L 249.8,339.9 L 250.2,339.9 L 250.5,339.9 L 250.8,339.9 L 251.1,339.9 L 251.4,339.9 L 251.7,339.9 L 252.1,339.9 L 252.4,339.9 L 252.7,339.9 L 253.0,339.9 L 253.3,339.9 L 253.7,339.9 L 254.0,339.9 L 254.3,339.9 L 254.6,339.9 L 254.9,339.9 L 255.3,339.9 L 255.6,339.9 L 255.9,339.9 L 256.2,339.9 L 256.6,339.9 L 256.9,339.9 L 257.2,339.9 L 257.6,339.9 L 257.9,339.9 L 258.2,339.9 L 258.5,339.9 L 258.9,339.9 L 259.2,339.9 L 259.5,339.9 L 259.9,339.9 L 260.2,339.9 L 260.5,339.9 L 260.9,339.9 L 261.2,339.9 L 261.5,339.9 L 261.9,339.9 L 262.2,339.9 L 262.5,339.9 L 262.9,339.9 L 263.2,339.9 L 263.6,339.9 L 263.9,339.9 L 264.2,339.9 L 264.6,339.9 L 264.9,339.9 L 265.3,339.9 L 265.6,339.9 L 265.9,339.9 L 266.3,339.9 L 266.6,339.9 L 267.0,339.9 L 267.3,339.9 L 267.7,339.9 L 268.0,339.9 L 268.4,339.9 L 268.7,339.9 L 269.1,339.9 L 269.4,339.9 L 269.7,339.9 L 270.1,339.9 L 270.4,339.9 L 270.8,339.9 L 271.2,339.9 L 271.5,339.9 L 271.9,339.9 L 272.2,339.9 L 272.6,339.8 L 272.9,339.8 L 273.3,339.8 L 273.6,339.8 L 274.0,339.8 L 274.3,339.8 L 274.7,339.8 L 275.1,339.8 L 275.4,339.8 L 275.8,339.8 L 276.1,339.8 L 276.5,339.8 L 276.9,339.8 L 277.2,339.8 L 277.6,339.8 L 278.0,339.8 L 278.3,339.8 L 278.7,339.8 L 279.0,339.8 L 279.4,339.8 L 279.8,339.8 L 280.1,339.8 L 280.5,339.8 L 280.9,339.8 L 281.3,339.8 L 281.6,339.8 L 282.0,339.8 L 282.4,339.8 L 282.7,339.8 L 283.1,339.8 L 283.5,339.8 L 283.9,339.8 L 284.2,339.8 L 284.6,339.8 L 285.0,339.8 L 285.4,339.8 L 285.7,339.8 L 286.1,339.8 L 286.5,339.7 L 286.9,339.7 L 287.3,339.7 L 287.6,339.7 L 288.0,339.7 L 288.4,339.7 L 288.8,339.7 L 289.2,339.7 L 289.5,339.7 L 289.9,339.7 L 290.3,339.7 L 290.7,339.7 L 291.1,339.7 L 291.5,339.7 L 291.9,339.7 L 292.3,339.7 L 292.6,339.7 L 293.0,339.7 L 293.4,339.7 L 293.8,339.7 L 294.2,339.7 L 294.6,339.7 L 295.0,339.7 L 295.4,339.7 L 295.8,339.7 L 296.2,339.7 L 296.6,339.6 L 297.0,339.6 L 297.4,339.6 L 297.8,339.6 L 298.2,339.6 L 298.6,339.6 L 299.0,339.6 L 299.4,339.6 L 299.8,339.6 L 300.2,339.6 L 300.6,339.6 L 301.0,339.6 L 301.4,339.6 L 301.8,339.6 L 302.2,339.6 L 302.6,339.6 L 303.0,339.6 L 303.4,339.6 L 303.8,339.6 L 304.2,339.5 L 304.6,339.5 L 305.1,339.5 L 305.5,339.5 L 305.9,339.5 L 306.3,339.5 L 306.7,339.5 L 307.1,339.5 L 307.5,339.5 L 308.0,339.5 L 308.4,339.5 L 308.8,339.5 L 309.2,339.5 L 309.6,339.5 L 310.0,339.5 L 310.5,339.4 L 310.9,339.4 L 311.3,339.4 L 311.7,339.4 L 312.2,339.4 L 312.6,339.4 L 313.0,339.4 L 313.4,339.4 L 313.9,339.4 L 314.3,339.4 L 314.7,339.4 L 315.1,339.4 L 315.6,339.4 L 316.0,339.3 L 316.4,339.3 L 316.9,339.3 L 317.3,339.3 L 317.7,339.3 L 318.2,339.3 L 318.6,339.3 L 319.0,339.3 L 319.5,339.3 L 319.9,339.3 L 320.3,339.3 L 320.8,339.2 L 321.2,339.2 L 321.7,339.2 L 322.1,339.2 L 322.5,339.2 L 323.0,339.2 L 323.4,339.2 L 323.9,339.2 L 324.3,339.2 L 324.8,339.2 L 325.2,339.1 L 325.7,339.1 L 326.1,339.1 L 326.5,339.1 L 327.0,339.1 L 327.4,339.1 L 327.9,339.1 L 328.3,339.1 L 328.8,339.0 L 329.3,339.0 L 329.7,339.0 L 330.2,339.0 L 330.6,339.0 L 331.1,339.0 L 331.5,339.0 L 332.0,339.0 L 332.5,338.9 L 332.9,338.9 L 333.4,338.9 L 333.8,338.9 L 334.3,338.9 L 334.8,338.9 L 335.2,338.8 L 335.7,338.8 L 336.2,338.8 L 336.6,338.8 L 337.1,338.8 L 337.6,338.8 L 338.0,338.8 L 338.5,338.7 L 339.0,338.7 L 339.4,338.7 L 339.9,338.7 L 340.4,338.7 L 340.8,338.7 L 341.3,338.6 L 341.8,338.6 L 342.3,338.6 L 342.8,338.6 L 343.2,338.6 L 343.7,338.5 L 344.2,338.5 L 344.7,338.5 L 345.1,338.5 L 345.6,338.5 L 346.1,338.4 L 346.6,338.4 L 347.1,338.4 L 347.6,338.4 L 348.1,338.4 L 348.5,338.3 L 349.0,338.3 L 349.5,338.3 L 350.0,338.3 L 350.5,338.2 L 351.0,338.2 L 351.5,338.2 L 352.0,338.2 L 352.5,338.1 L 353.0,338.1 L 353.5,338.1 L 354.0,338.1 L 354.5,338.0 L 355.0,338.0 L 355.4,338.0 L 355.9,338.0 L 356.5,337.9 L 357.0,337.9 L 357.5,337.9 L 358.0,337.9 L 358.5,337.8 L 359.0,337.8 L 359.5,337.8 L 360.0,337.7 L 360.5,337.7 L 361.0,337.7 L 361.5,337.7 L 362.0,337.6 L 362.5,337.6 L 363.0,337.6 L 363.6,337.5 L 364.1,337.5 L 364.6,337.5 L 365.1,337.4 L 365.6,337.4 L 366.1,337.4 L 366.7,337.3 L 367.2,337.3 L 367.7,337.2 L 368.2,337.2 L 368.7,337.2 L 369.3,337.1 L 369.8,337.1 L 370.3,337.1 L 370.8,337.0 L 371.4,337.0 L 371.9,336.9 L 372.4,336.9 L 372.9,336.9 L 373.5,336.8 L 374.0,336.8 L 374.5,336.7 L 375.1,336.7 L 375.6,336.6 L 376.1,336.6 L 376.7,336.5 L 377.2,336.5 L 377.8,336.4 L 378.3,336.4 L 378.8,336.4 L 379.4,336.3 L 379.9,336.3 L 380.5,336.2 L 381.0,336.2 L 381.6,336.1 L 382.1,336.0 L 382.6,336.0 L 383.2,335.9 L 383.7,335.9 L 384.3,335.8 L 384.8,335.8 L 385.4,335.7 L 385.9,335.7 L 386.5,335.6 L 387.1,335.5 L 387.6,335.5 L 388.2,335.4 L 388.7,335.4 L 389.3,335.3 L 389.8,335.2 L 390.4,335.2 L 391.0,335.1 L 391.5,335.0 L 392.1,335.0 L 392.6,334.9 L 393.2,334.8 L 393.8,334.8 L 394.3,334.7 L 394.9,334.6 L 395.5,334.5 L 396.1,334.5 L 396.6,334.4 L 397.2,334.3 L 397.8,334.2 L 398.3,334.2 L 398.9,334.1 L 399.5,334.0 L 400.1,333.9 L 400.7,333.8 L 401.2,333.7 L 401.8,333.7 L 402.4,333.6 L 403.0,333.5 L 403.6,333.4 L 404.1,333.3 L 404.7,333.2 L 405.3,333.1 L 405.9,333.0 L 406.5,332.9 L 407.1,332.8 L 407.7,332.7 L 408.3,332.6 L 408.9,332.5 L 409.4,332.4 L 410.0,332.3 L 410.6,332.2 L 411.2,332.1 L 411.8,332.0 L 412.4,331.9 L 413.0,331.8 L 413.6,331.6 L 414.2,331.5 L 414.8,331.4 L 415.4,331.3 L 416.0,331.2 L 416.6,331.0 L 417.3,330.9 L 417.9,330.8 L 418.5,330.7 L 419.1,330.5 L 419.7,330.4 L 420.3,330.3 L 420.9,330.1 L 421.5,330.0 L 422.2,329.8 L 422.8,329.7 L 423.4,329.6 L 424.0,329.4 L 424.6,329.3 L 425.2,329.1 L 425.9,328.9 L 426.5,328.8 L 427.1,328.6 L 427.7,328.5 L 428.4,328.3 L 429.0,328.1 L 429.6,328.0 L 430.3,327.8 L 430.9,327.6 L 431.5,327.4 L 432.2,327.3 L 432.8,327.1 L 433.4,326.9 L 434.1,326.7 L 434.7,326.5 L 435.3,326.3 L 436.0,326.1 L 436.6,325.9 L 437.3,325.7 L 437.9,325.5 L 438.5,325.3 L 439.2,325.1 L 439.8,324.8 L 440.5,324.6 L 441.1,324.4 L 441.8,324.2 L 442.4,323.9 L 443.1,323.7 L 443.7,323.4 L 444.4,323.2 L 445.1,322.9 L 445.7,322.7 L 446.4,322.4 L 447.0,322.2 L 447.7,321.9 L 448.3,321.6 L 449.0,321.3 L 449.7,321.0 L 450.3,320.8 L 451.0,320.5 L 451.7,320.2 L 452.3,319.9 L 453.0,319.6 L 453.7,319.2 L 454.4,318.9 L 455.0,318.6 L 455.7,318.3 L 456.4,317.9 L 457.1,317.6 L 457.7,317.2 L 458.4,316.9 L 459.1,316.5 L 459.8,316.1 L 460.5,315.8 L 461.1,315.4 L 461.8,315.0 L 462.5,314.6 L 463.2,314.2 L 463.9,313.8 L 464.6,313.3 L 465.3,312.9 L 466.0,312.5 L 466.7,312.0 L 467.3,311.6 L 468.0,311.1 L 468.7,310.6 L 469.4,310.1 L 470.1,309.6 L 470.8,309.1 L 471.5,308.6 L 472.2,308.1 L 473.0,307.5 L 473.7,307.0 L 474.4,306.4 L 475.1,305.9 L 475.8,305.3 L 476.5,304.7 L 477.2,304.1 L 477.9,303.4 L 478.6,302.8 L 479.3,302.2 L 480.1,301.5 L 480.8,300.8 L 481.5,300.1 L 482.2,299.4 L 482.9,298.7 L 483.7,297.9 L 484.4,297.2 L 485.1,296.4 L 485.8,295.6 L 486.6,294.8 L 487.3,294.0 L 488.0,293.1 L 488.8,292.2 L 489.5,291.3 L 490.2,290.4 L 491.0,289.5 L 491.7,288.5 L 492.4,287.5 L 493.2,286.5 L 493.9,285.5 L 494.7,284.4 L 495.4,283.3 L 496.2,282.2 L 496.9,281.0 L 497.7,279.9 L 498.4,278.6 L 499.2,277.4 L 499.9,276.1 L 500.7,274.8 L 501.4,273.4 L 502.2,272.0 L 502.9,270.6 L 503.7,269.1 L 504.4,267.6 L 505.2,266.1 L 506.0,264.5 L 506.7,262.8 L 507.5,261.1 L 508.3,259.4 L 509.0,257.6 L 509.8,255.7 L 510.6,253.8 L 511.3,251.8 L 512.1,249.8 L 512.9,247.7 L 513.7,245.5 L 514.4,243.2 L 515.2,240.9 L 516.0,238.5 L 516.8,236.1 L 517.6,233.5 L 518.3,230.8 L 519.1,228.1 L 519.9,225.3 L 520.7,222.3 L 521.5,219.3 L 522.3,216.1 L 523.1,212.9 L 523.9,209.5 L 524.7,205.9 L 525.5,202.3 L 526.3,198.5 L 527.1,194.6 L 527.9,190.5 L 528.7,186.2 L 529.5,181.8 L 530.3,177.2 L 531.1,172.4 L 531.9,167.4 L 532.7,162.1 L 533.5,156.7 L 534.3,151.0 L 535.1,145.1 L 535.9,138.9 L 536.8,132.5 L 537.6,125.7 L 538.4,118.6 L 539.2,111.3 L 540.0,103.5 L 540.9,95.4 L 541.7,86.9 L 542.5,77.9 L 543.3,68.5 L 544.2,58.7 L 545.0,48.3 L 545.0,48.3 L 545.0,291.4 L 640.0,291.4" fill="none" stroke="#cbd5e1" stroke-width="1.8"/>
<path d="M 72.8,340.0 L 78.5,340.0 L 84.2,340.0 L 90.0,340.0 L 95.7,340.0 L 101.4,340.0 L 107.1,340.0 L 112.8,340.0 L 118.5,340.0 L 124.2,340.0 L 129.9,340.0 L 135.6,340.0 L 141.2,340.0 L 146.9,339.9 L 152.6,339.9 L 158.3,339.9 L 164.1,339.9 L 169.8,339.9 L 175.4,339.9 L 181.2,339.9 L 186.9,339.9 L 192.6,339.9 L 198.3,339.8 L 204.0,339.8 L 209.7,339.8 L 215.3,339.8 L 221.1,339.7 L 226.8,339.7 L 232.5,339.7 L 238.1,339.6 L 243.8,339.6 L 249.6,339.5 L 255.2,339.5 L 261.0,339.4 L 266.6,339.3 L 272.4,339.2 L 278.0,339.1 L 283.8,339.0 L 289.5,338.9 L 295.1,338.8 L 300.9,338.7 L 306.6,338.5 L 312.2,338.4 L 318.0,338.2 L 323.7,338.0 L 329.4,337.7 L 335.1,337.5 L 340.8,337.2 L 346.5,336.9 L 352.1,336.6 L 357.9,336.2 L 363.6,335.8 L 369.2,335.3 L 375.0,334.8 L 380.7,334.2 L 386.4,333.6 L 392.1,332.9 L 397.8,332.2 L 403.4,331.3 L 409.1,330.4 L 414.8,329.3 L 420.6,328.2 L 426.2,326.9 L 431.9,325.4 L 437.7,323.8 L 443.4,322.0 L 449.1,319.9 L 454.8,317.5 L 460.5,314.9 L 466.2,311.8 L 471.8,308.3 L 477.5,304.3 L 483.2,299.5 L 488.9,294.0 L 494.6,287.4 L 500.4,279.6 L 506.1,270.3 L 511.8,259.4 L 517.5,246.5 L 523.2,231.9 L 528.9,216.3 L 534.5,201.6 L 540.2,191.5 L 546.0,191.4 L 551.7,206.9 L 557.4,237.0 L 563.1,269.1 L 568.8,286.7 L 574.5,290.9 L 580.2,291.4 L 585.9,291.4 L 591.6,291.4 L 597.3,291.4 L 603.0,291.4 L 608.7,291.4 L 614.4,291.4 L 620.0,291.4 L 625.8,291.4 L 631.5,291.4 L 637.1,291.4" fill="none" stroke="#a78bfa" stroke-width="1.8"/>
<path d="M 71.4,340.0 L 74.3,340.0 L 77.1,340.0 L 80.0,340.0 L 82.8,340.0 L 85.7,340.0 L 88.5,340.0 L 91.4,340.0 L 94.2,340.0 L 97.1,340.0 L 99.9,340.0 L 102.8,340.0 L 105.6,340.0 L 108.5,340.0 L 111.3,340.0 L 114.2,340.0 L 117.0,340.0 L 119.9,340.0 L 122.7,340.0 L 125.6,340.0 L 128.4,340.0 L 131.3,340.0 L 134.1,340.0 L 137.0,340.0 L 139.8,340.0 L 142.7,340.0 L 145.5,340.0 L 148.4,340.0 L 151.2,340.0 L 154.1,340.0 L 156.9,340.0 L 159.8,340.0 L 162.6,340.0 L 165.5,340.0 L 168.3,340.0 L 171.2,340.0 L 174.0,340.0 L 176.9,340.0 L 179.7,339.9 L 182.6,339.9 L 185.4,339.9 L 188.3,339.9 L 191.1,339.9 L 194.0,339.9 L 196.8,339.9 L 199.7,339.9 L 202.5,339.9 L 205.4,339.9 L 208.2,339.9 L 211.1,339.9 L 213.9,339.9 L 216.8,339.9 L 219.6,339.9 L 222.5,339.8 L 225.3,339.8 L 228.2,339.8 L 231.0,339.8 L 233.9,339.8 L 236.7,339.8 L 239.6,339.8 L 242.4,339.8 L 245.3,339.7 L 248.1,339.7 L 251.0,339.7 L 253.8,339.7 L 256.7,339.7 L 259.5,339.6 L 262.4,339.6 L 265.2,339.6 L 268.1,339.5 L 270.9,339.5 L 273.8,339.5 L 276.6,339.4 L 279.5,339.4 L 282.3,339.4 L 285.2,339.3 L 288.0,339.3 L 290.9,339.2 L 293.7,339.2 L 296.6,339.1 L 299.4,339.1 L 302.3,339.0 L 305.1,339.0 L 308.0,338.9 L 310.8,338.8 L 313.7,338.7 L 316.5,338.7 L 319.4,338.6 L 322.2,338.5 L 325.1,338.4 L 327.9,338.3 L 330.8,338.2 L 333.6,338.1 L 336.5,338.0 L 339.3,337.8 L 342.2,337.7 L 345.0,337.6 L 347.9,337.4 L 350.7,337.3 L 353.6,337.1 L 356.4,336.9 L 359.3,336.8 L 362.1,336.6 L 365.0,336.4 L 367.8,336.1 L 370.7,335.9 L 373.5,335.7 L 376.4,335.4 L 379.2,335.1 L 382.1,334.9 L 384.9,334.6 L 387.8,334.2 L 390.6,333.9 L 393.5,333.5 L 396.3,333.2 L 399.2,332.8 L 402.0,332.4 L 404.9,331.9 L 407.7,331.5 L 410.6,331.0 L 413.4,330.4 L 416.3,329.9 L 419.1,329.3 L 422.0,328.7 L 424.8,328.0 L 427.7,327.3 L 430.5,326.6 L 433.4,325.8 L 436.2,325.0 L 439.1,324.1 L 441.9,323.1 L 444.8,322.1 L 447.6,321.1 L 450.5,319.9 L 453.3,318.7 L 456.2,317.5 L 459.0,316.1 L 461.9,314.6 L 464.7,313.0 L 467.6,311.3 L 470.4,309.5 L 473.3,307.6 L 476.1,305.5 L 479.0,303.2 L 481.8,300.7 L 484.7,298.1 L 487.5,295.2 L 490.4,292.1 L 493.2,288.6 L 496.1,284.9 L 498.9,280.8 L 501.8,276.3 L 504.6,271.4 L 507.5,266.0 L 510.3,260.0 L 513.2,253.3 L 516.0,246.0 L 518.9,237.8 L 521.7,228.7 L 524.6,218.6 L 527.4,207.7 L 530.3,195.9 L 533.1,183.7 L 536.0,171.9 L 538.8,162.2 L 541.7,157.1 L 544.5,160.6 L 547.4,176.8 L 550.2,207.3 L 553.1,245.7 L 555.9,276.3 L 558.8,288.9 L 561.6,291.2 L 564.5,291.4 L 567.3,291.4 L 570.2,291.4 L 573.0,291.4 L 575.9,291.4 L 578.7,291.4 L 581.6,291.4 L 584.4,291.4 L 587.3,291.4 L 590.1,291.4 L 593.0,291.4 L 595.8,291.4 L 598.7,291.4 L 601.5,291.4 L 604.4,291.4 L 607.2,291.4 L 610.1,291.4 L 612.9,291.4 L 615.8,291.4 L 618.6,291.4 L 621.5,291.4 L 624.3,291.4 L 627.2,291.4 L 630.0,291.4 L 632.9,291.4 L 635.7,291.4 L 638.6,291.4" fill="none" stroke="#2dd4bf" stroke-width="1.8"/>
<path d="M 70.7,340.0 L 72.1,340.0 L 73.6,340.0 L 75.0,340.0 L 76.4,340.0 L 77.8,340.0 L 79.3,340.0 L 80.7,340.0 L 82.1,340.0 L 83.5,340.0 L 85.0,340.0 L 86.4,340.0 L 87.8,340.0 L 89.2,340.0 L 90.7,340.0 L 92.1,340.0 L 93.5,340.0 L 94.9,340.0 L 96.4,340.0 L 97.8,340.0 L 99.2,340.0 L 100.6,340.0 L 102.1,340.0 L 103.5,340.0 L 104.9,340.0 L 106.3,340.0 L 107.8,340.0 L 109.2,340.0 L 110.6,340.0 L 112.0,340.0 L 113.5,340.0 L 114.9,340.0 L 116.3,340.0 L 117.7,340.0 L 119.2,340.0 L 120.6,340.0 L 122.0,340.0 L 123.4,340.0 L 124.9,340.0 L 126.3,340.0 L 127.7,340.0 L 129.1,340.0 L 130.6,340.0 L 132.0,340.0 L 133.4,340.0 L 134.8,340.0 L 136.3,340.0 L 137.7,340.0 L 139.1,340.0 L 140.5,340.0 L 142.0,340.0 L 143.4,340.0 L 144.8,340.0 L 146.2,340.0 L 147.7,340.0 L 149.1,340.0 L 150.5,340.0 L 151.9,340.0 L 153.4,340.0 L 154.8,340.0 L 156.2,340.0 L 157.6,340.0 L 159.1,340.0 L 160.5,340.0 L 161.9,340.0 L 163.3,340.0 L 164.8,340.0 L 166.2,340.0 L 167.6,340.0 L 169.0,340.0 L 170.5,340.0 L 171.9,340.0 L 173.3,340.0 L 174.7,340.0 L 176.2,340.0 L 177.6,340.0 L 179.0,340.0 L 180.4,340.0 L 181.9,340.0 L 183.3,340.0 L 184.7,340.0 L 186.1,340.0 L 187.6,340.0 L 189.0,340.0 L 190.4,340.0 L 191.8,340.0 L 193.3,340.0 L 194.7,340.0 L 196.1,340.0 L 197.5,340.0 L 199.0,340.0 L 200.4,340.0 L 201.8,340.0 L 203.2,339.9 L 204.7,339.9 L 206.1,339.9 L 207.5,339.9 L 208.9,339.9 L 210.4,339.9 L 211.8,339.9 L 213.2,339.9 L 214.6,339.9 L 216.1,339.9 L 217.5,339.9 L 218.9,339.9 L 220.3,339.9 L 221.8,339.9 L 223.2,339.9 L 224.6,339.9 L 226.0,339.9 L 227.5,339.9 L 228.9,339.9 L 230.3,339.9 L 231.7,339.9 L 233.2,339.9 L 234.6,339.9 L 236.0,339.9 L 237.4,339.9 L 238.9,339.9 L 240.3,339.9 L 241.7,339.8 L 243.1,339.8 L 244.6,339.8 L 246.0,339.8 L 247.4,339.8 L 248.8,339.8 L 250.3,339.8 L 251.7,339.8 L 253.1,339.8 L 254.5,339.8 L 256.0,339.8 L 257.4,339.8 L 258.8,339.8 L 260.2,339.7 L 261.7,339.7 L 263.1,339.7 L 264.5,339.7 L 265.9,339.7 L 267.4,339.7 L 268.8,339.7 L 270.2,339.7 L 271.6,339.7 L 273.1,339.6 L 274.5,339.6 L 275.9,339.6 L 277.3,339.6 L 278.8,339.6 L 280.2,339.6 L 281.6,339.6 L 283.0,339.5 L 284.5,339.5 L 285.9,339.5 L 287.3,339.5 L 288.7,339.5 L 290.2,339.5 L 291.6,339.4 L 293.0,339.4 L 294.4,339.4 L 295.9,339.4 L 297.3,339.3 L 298.7,339.3 L 300.1,339.3 L 301.6,339.3 L 303.0,339.2 L 304.4,339.2 L 305.8,339.2 L 307.3,339.2 L 308.7,339.1 L 310.1,339.1 L 311.5,339.1 L 313.0,339.0 L 314.4,339.0 L 315.8,339.0 L 317.2,338.9 L 318.7,338.9 L 320.1,338.9 L 321.5,338.8 L 322.9,338.8 L 324.4,338.7 L 325.8,338.7 L 327.2,338.7 L 328.6,338.6 L 330.1,338.6 L 331.5,338.5 L 332.9,338.5 L 334.3,338.4 L 335.8,338.4 L 337.2,338.3 L 338.6,338.2 L 340.0,338.2 L 341.5,338.1 L 342.9,338.1 L 344.3,338.0 L 345.7,337.9 L 347.2,337.9 L 348.6,337.8 L 350.0,337.7 L 351.4,337.6 L 352.9,337.6 L 354.3,337.5 L 355.7,337.4 L 357.1,337.3 L 358.6,337.2 L 360.0,337.1 L 361.4,337.1 L 362.8,337.0 L 364.3,336.9 L 365.7,336.8 L 367.1,336.7 L 368.5,336.5 L 370.0,336.4 L 371.4,336.3 L 372.8,336.2 L 374.2,336.1 L 375.7,336.0 L 377.1,335.8 L 378.5,335.7 L 379.9,335.6 L 381.4,335.4 L 382.8,335.3 L 384.2,335.1 L 385.6,335.0 L 387.1,334.8 L 388.5,334.7 L 389.9,334.5 L 391.3,334.3 L 392.8,334.2 L 394.2,334.0 L 395.6,333.8 L 397.0,333.6 L 398.5,333.4 L 399.9,333.2 L 401.3,333.0 L 402.7,332.8 L 404.2,332.6 L 405.6,332.4 L 407.0,332.1 L 408.4,331.9 L 409.9,331.6 L 411.3,331.4 L 412.7,331.1 L 414.1,330.8 L 415.6,330.6 L 417.0,330.3 L 418.4,330.0 L 419.8,329.7 L 421.3,329.4 L 422.7,329.0 L 424.1,328.7 L 425.5,328.4 L 427.0,328.0 L 428.4,327.6 L 429.8,327.3 L 431.2,326.9 L 432.7,326.5 L 434.1,326.1 L 435.5,325.7 L 436.9,325.2 L 438.4,324.8 L 439.8,324.3 L 441.2,323.8 L 442.6,323.3 L 444.1,322.8 L 445.5,322.3 L 446.9,321.7 L 448.3,321.2 L 449.8,320.6 L 451.2,320.0 L 452.6,319.4 L 454.0,318.7 L 455.5,318.1 L 456.9,317.4 L 458.3,316.7 L 459.7,315.9 L 461.2,315.2 L 462.6,314.4 L 464.0,313.6 L 465.4,312.7 L 466.9,311.9 L 468.3,311.0 L 469.7,310.0 L 471.1,309.0 L 472.6,308.0 L 474.0,307.0 L 475.4,305.9 L 476.8,304.7 L 478.3,303.6 L 479.7,302.3 L 481.1,301.1 L 482.5,299.7 L 484.0,298.4 L 485.4,296.9 L 486.8,295.4 L 488.2,293.9 L 489.7,292.2 L 491.1,290.5 L 492.5,288.8 L 493.9,286.9 L 495.4,285.0 L 496.8,282.9 L 498.2,280.8 L 499.6,278.6 L 501.1,276.2 L 502.5,273.8 L 503.9,271.2 L 505.3,268.5 L 506.8,265.7 L 508.2,262.7 L 509.6,259.6 L 511.0,256.3 L 512.5,252.8 L 513.9,249.1 L 515.3,245.2 L 516.7,241.1 L 518.2,236.7 L 519.6,232.1 L 521.0,227.3 L 522.4,222.1 L 523.9,216.6 L 525.3,210.8 L 526.7,204.6 L 528.1,198.0 L 529.6,191.0 L 531.0,183.5 L 532.4,175.7 L 533.8,167.4 L 535.3,158.9 L 536.7,150.2 L 538.1,141.7 L 539.5,134.1 L 541.0,128.3 L 542.4,126.0 L 543.8,130.0 L 545.2,143.3 L 546.7,169.1 L 548.1,206.9 L 549.5,248.4 L 550.9,278.3 L 552.4,289.4 L 553.8,291.3 L 555.2,291.4 L 556.6,291.4 L 558.1,291.4 L 559.5,291.4 L 560.9,291.4 L 562.3,291.4 L 563.8,291.4 L 565.2,291.4 L 566.6,291.4 L 568.0,291.4 L 569.5,291.4 L 570.9,291.4 L 572.3,291.4 L 573.7,291.4 L 575.2,291.4 L 576.6,291.4 L 578.0,291.4 L 579.4,291.4 L 580.9,291.4 L 582.3,291.4 L 583.7,291.4 L 585.1,291.4 L 586.6,291.4 L 588.0,291.4 L 589.4,291.4 L 590.8,291.4 L 592.3,291.4 L 593.7,291.4 L 595.1,291.4 L 596.5,291.4 L 598.0,291.4 L 599.4,291.4 L 600.8,291.4 L 602.2,291.4 L 603.7,291.4 L 605.1,291.4 L 606.5,291.4 L 607.9,291.4 L 609.4,291.4 L 610.8,291.4 L 612.2,291.4 L 613.6,291.4 L 615.1,291.4 L 616.5,291.4 L 617.9,291.4 L 619.3,291.4 L 620.8,291.4 L 622.2,291.4 L 623.6,291.4 L 625.0,291.4 L 626.5,291.4 L 627.9,291.4 L 629.3,291.4 L 630.7,291.4 L 632.2,291.4 L 633.6,291.4 L 635.0,291.4 L 636.4,291.4 L 637.9,291.4 L 639.3,291.4" fill="none" stroke="#fb923c" stroke-width="1.8"/>
<line x1="108.0" y1="39.4" x2="130.0" y2="39.4" stroke="#cbd5e1" stroke-width="2.2"/>
<text x="136.0" y="43.4" font-size="11" text-anchor="start" fill="#cbd5e1">exact (Module 8, &#958;<tspan baseline-shift="sub" font-size="8">0</tspan> = 1.032777)</text>
<line x1="108.0" y1="57.4" x2="130.0" y2="57.4" stroke="#a78bfa" stroke-width="2.2"/>
<text x="136.0" y="61.4" font-size="11" text-anchor="start" fill="#a78bfa">Godunov, 100 cells: peak 3.06</text>
<line x1="108.0" y1="75.4" x2="130.0" y2="75.4" stroke="#2dd4bf" stroke-width="2.2"/>
<text x="136.0" y="79.4" font-size="11" text-anchor="start" fill="#2dd4bf">Godunov, 200 cells: peak 3.76</text>
<line x1="108.0" y1="93.4" x2="130.0" y2="93.4" stroke="#fb923c" stroke-width="2.2"/>
<text x="136.0" y="97.4" font-size="11" text-anchor="start" fill="#fb923c">Godunov, 400 cells: peak 4.40</text>
<text x="551.0" y="52.3" font-size="10.5" text-anchor="start" fill="#94a3b8">jump ceiling 6</text>
<text x="355.0" y="380.0" font-size="11.5" text-anchor="middle" fill="#cbd5e1">r</text>
<text x="22.0" y="182.0" font-size="12" text-anchor="middle" fill="#cbd5e1">&#961;</text>
</svg>